<svg version="1.1" viewBox="0.0 0.0 499.0 249.0" fill="none" stroke="none" stroke-linecap="square" stroke-miterlimit="10" width="499" height="249" xmlns:xlink="http://www.w3.org/1999/xlink" xmlns="http://www.w3.org/2000/svg"><path fill="#ffffff" d="M0 0L499.0 0L499.0 249.0L0 249.0L0 0Z" fill-rule="nonzero"/><path stroke="#333333" stroke-width="1.0" stroke-linecap="butt" d="M38.5 191.5L499.5 191.5" fill-rule="nonzero"/><path stroke="#cccccc" stroke-width="1.0" stroke-linecap="butt" d="M38.5 158.5L499.5 158.5" fill-rule="nonzero"/><path stroke="#cccccc" stroke-width="1.0" stroke-linecap="butt" d="M38.5 125.5L499.5 125.5" fill-rule="nonzero"/><path stroke="#cccccc" stroke-width="1.0" stroke-linecap="butt" d="M38.5 92.5L499.5 92.5" fill-rule="nonzero"/><path stroke="#cccccc" stroke-width="1.0" stroke-linecap="butt" d="M38.5 58.5L499.5 58.5" fill-rule="nonzero"/><clipPath id="id_0"><path d="M38.693428 58.94409L499.0 58.94409L499.0 191.88936L38.693428 191.88936L38.693428 58.94409Z" clip-rule="nonzero"/></clipPath><path stroke="#000000" stroke-width="2.0" stroke-linecap="butt" stroke-opacity="0.0" clip-path="url(#id_0)" d="M145.0 192.0L76.0 192.0L76.0 94.0C76.0 92.89543 76.89543 92.0 78.0 92.0L143.0 92.0C144.10457 92.0 145.0 92.89543 145.0 94.0Z" fill-rule="nonzero"/><path fill="#4f81bd" clip-path="url(#id_0)" d="M145.0 192.0L76.0 192.0L76.0 94.0C76.0 92.89543 76.89543 92.0 78.0 92.0L143.0 92.0C144.10457 92.0 145.0 92.89543 145.0 94.0Z" fill-rule="nonzero"/><path stroke="#000000" stroke-width="2.0" stroke-linecap="butt" stroke-opacity="0.0" clip-path="url(#id_0)" d="M251.0 192.0L182.0 192.0L182.0 61.0C182.0 59.89543 182.89543 59.0 184.0 59.0L249.0 59.0C250.10457 59.0 251.0 59.89543 251.0 61.0Z" fill-rule="nonzero"/><path fill="#4f81bd" clip-path="url(#id_0)" d="M251.0 192.0L182.0 192.0L182.0 61.0C182.0 59.89543 182.89543 59.0 184.0 59.0L249.0 59.0C250.10457 59.0 251.0 59.89543 251.0 61.0Z" fill-rule="nonzero"/><path stroke="#000000" stroke-width="2.0" stroke-linecap="butt" stroke-opacity="0.0" clip-path="url(#id_0)" d="M357.0 192.0L288.0 192.0L288.0 74.0C288.0 72.89543 288.89542 72.0 290.0 72.0L355.0 72.0C356.10458 72.0 357.0 72.89543 357.0 74.0Z" fill-rule="nonzero"/><path fill="#4f81bd" clip-path="url(#id_0)" d="M357.0 192.0L288.0 192.0L288.0 74.0C288.0 72.89543 288.89542 72.0 290.0 72.0L355.0 72.0C356.10458 72.0 357.0 72.89543 357.0 74.0Z" fill-rule="nonzero"/><path stroke="#000000" stroke-width="2.0" stroke-linecap="butt" stroke-opacity="0.0" clip-path="url(#id_0)" d="M463.0 192.0L394.0 192.0L394.0 94.0C394.0 92.89543 394.89542 92.0 396.0 92.0L461.0 92.0C462.10458 92.0 463.0 92.89543 463.0 94.0Z" fill-rule="nonzero"/><path fill="#4f81bd" clip-path="url(#id_0)" d="M463.0 192.0L394.0 192.0L394.0 94.0C394.0 92.89543 394.89542 92.0 396.0 92.0L461.0 92.0C462.10458 92.0 463.0 92.89543 463.0 94.0Z" fill-rule="nonzero"/><path fill="#000000" d="M32.365303 191.07686Q32.365303 191.95186 32.224678 192.67061Q32.084053 193.38936 31.75593 193.92061Q31.44343 194.43623 30.927805 194.71748Q30.41218 194.99873 29.66218 194.99873Q28.94343 194.99873 28.44343 194.74873Q27.959055 194.48311 27.66218 193.99873Q27.365305 193.49873 27.240305 192.77998Q27.115305 192.04561 27.115305 191.10811Q27.115305 190.24873 27.25593 189.52998Q27.396555 188.79561 27.709055 188.27998Q28.03718 187.76436 28.552805 187.48311Q29.06843 187.20186 29.81843 187.20186Q30.53718 187.20186 31.021555 187.45186Q31.50593 187.70186 31.802805 188.20186Q32.115303 188.70186 32.240303 189.42061Q32.365303 190.13936 32.365303 191.07686ZM31.334055 191.15498Q31.334055 190.57686 31.28718 190.13936Q31.240305 189.68623 31.16218 189.34248Q31.084055 188.98311 30.959055 188.73311Q30.834055 188.48311 30.66218 188.32686Q30.490305 188.17061 30.25593 188.09248Q30.03718 188.01436 29.75593 188.01436Q29.25593 188.01436 28.94343 188.24873Q28.63093 188.48311 28.44343 188.90498Q28.271555 189.31123 28.209055 189.85811Q28.146555 190.40498 28.146555 191.04561Q28.146555 191.88936 28.22468 192.48311Q28.31843 193.07686 28.50593 193.45186Q28.709055 193.82686 29.00593 193.99873Q29.302805 194.17061 29.72468 194.17061Q30.052805 194.17061 30.28718 194.07686Q30.53718 193.96748 30.709055 193.77998Q30.896555 193.57686 31.00593 193.29561Q31.13093 193.01436 31.19343 192.68623Q31.271555 192.35811 31.302805 191.96748Q31.334055 191.57686 31.334055 191.15498Z" fill-rule="nonzero"/><path fill="#000000" d="M32.068428 159.21555Q32.068428 159.82492 31.865305 160.3093Q31.66218 160.77805 31.28718 161.10617Q30.91218 161.41867 30.396555 161.59055Q29.88093 161.76242 29.240305 161.76242Q28.896555 161.76242 28.56843 161.71555Q28.25593 161.66867 28.00593 161.59055Q27.771555 161.51242 27.59968 161.44992Q27.44343 161.3718 27.396555 161.34055Q27.365305 161.29367 27.34968 161.26242Q27.334055 161.23117 27.31843 161.1843Q27.302805 161.1218 27.28718 161.04367Q27.28718 160.96555 27.28718 160.8718Q27.28718 160.76242 27.28718 160.6843Q27.302805 160.60617 27.31843 160.5593Q27.34968 160.51242 27.38093 160.4968Q27.41218 160.46555 27.459055 160.46555Q27.521555 160.46555 27.63093 160.54367Q27.75593 160.60617 27.959055 160.69992Q28.177805 160.77805 28.47468 160.85617Q28.78718 160.9343 29.209055 160.9343Q29.59968 160.9343 29.927805 160.84055Q30.25593 160.7468 30.490305 160.54367Q30.740305 160.34055 30.865305 160.04367Q31.00593 159.7468 31.00593 159.3093Q31.00593 158.94992 30.88093 158.66867Q30.771555 158.38742 30.53718 158.19992Q30.302805 158.01242 29.94343 157.9343Q29.584055 157.84055 29.06843 157.84055Q28.709055 157.84055 28.44343 157.8718Q28.19343 157.90305 27.97468 157.90305Q27.81843 157.90305 27.740305 157.84055Q27.677805 157.76242 27.677805 157.54367L27.677805 154.44992Q27.677805 154.26242 27.75593 154.16867Q27.84968 154.07492 28.021555 154.07492L31.38093 154.07492Q31.427805 154.07492 31.47468 154.10617Q31.521555 154.1218 31.53718 154.1843Q31.56843 154.23117 31.584055 154.3093Q31.59968 154.38742 31.59968 154.4968Q31.59968 154.71555 31.53718 154.84055Q31.490305 154.94992 31.38093 154.94992L28.552805 154.94992L28.552805 157.07492Q28.75593 157.04367 28.959055 157.04367Q29.177805 157.02805 29.459055 157.02805Q30.115305 157.02805 30.59968 157.1843Q31.084055 157.34055 31.41218 157.63742Q31.740305 157.91867 31.896555 158.32492Q32.068428 158.71555 32.068428 159.21555Z" fill-rule="nonzero"/><path fill="#000000" d="M26.13093 128.01048Q26.13093 128.13548 26.09968 128.21361Q26.084055 128.27611 26.052805 128.32298Q26.03718 128.36986 25.990305 128.40111Q25.959055 128.41673 25.91218 128.41673L21.959055 128.41673Q21.91218 128.41673 21.88093 128.40111Q21.84968 128.36986 21.802805 128.32298Q21.771555 128.27611 21.75593 128.21361Q21.740305 128.13548 21.740305 128.01048Q21.740305 127.91673 21.75593 127.83861Q21.771555 127.76048 21.802805 127.71361Q21.834055 127.66673 21.865305 127.63548Q21.91218 127.60423 21.959055 127.60423L23.53718 127.60423L23.53718 121.83861L22.06843 122.71361Q21.959055 122.77611 21.88093 122.79173Q21.81843 122.79173 21.771555 122.76048Q21.740305 122.71361 21.72468 122.63548Q21.709055 122.54173 21.709055 122.41673Q21.709055 122.30736 21.709055 122.24486Q21.72468 122.16673 21.740305 122.11986Q21.771555 122.07298 21.802805 122.04173Q21.834055 122.01048 21.88093 121.96361L23.63093 120.85423Q23.646555 120.83861 23.677805 120.82298Q23.72468 120.80736 23.771555 120.80736Q23.834055 120.79173 23.896555 120.79173Q23.97468 120.77611 24.06843 120.77611Q24.209055 120.77611 24.302805 120.79173Q24.396555 120.80736 24.44343 120.82298Q24.50593 120.83861 24.521555 120.88548Q24.53718 120.91673 24.53718 120.94798L24.53718 127.60423L25.91218 127.60423Q25.959055 127.60423 25.990305 127.63548Q26.03718 127.66673 26.06843 127.71361Q26.09968 127.76048 26.115305 127.83861Q26.13093 127.91673 26.13093 128.01048ZM32.365303 124.60423Q32.365303 125.47923 32.224678 126.19798Q32.084053 126.91673 31.75593 127.44798Q31.44343 127.96361 30.927805 128.24486Q30.41218 128.52611 29.66218 128.52611Q28.94343 128.52611 28.44343 128.27611Q27.959055 128.01048 27.66218 127.52611Q27.365305 127.02611 27.240305 126.30736Q27.115305 125.57298 27.115305 124.63548Q27.115305 123.77611 27.25593 123.05736Q27.396555 122.32298 27.709055 121.80736Q28.03718 121.29173 28.552805 121.01048Q29.06843 120.72923 29.81843 120.72923Q30.53718 120.72923 31.021555 120.97923Q31.50593 121.22923 31.802805 121.72923Q32.115303 122.22923 32.240303 122.94798Q32.365303 123.66673 32.365303 124.60423ZM31.334055 124.68236Q31.334055 124.10423 31.28718 123.66673Q31.240305 123.21361 31.16218 122.86986Q31.084055 122.51048 30.959055 122.26048Q30.834055 122.01048 30.66218 121.85423Q30.490305 121.69798 30.25593 121.61986Q30.03718 121.54173 29.75593 121.54173Q29.25593 121.54173 28.94343 121.77611Q28.63093 122.01048 28.44343 122.43236Q28.271555 122.83861 28.209055 123.38548Q28.146555 123.93236 28.146555 124.57298Q28.146555 125.41673 28.22468 126.01048Q28.31843 126.60423 28.50593 126.97923Q28.709055 127.35423 29.00593 127.52611Q29.302805 127.69798 29.72468 127.69798Q30.052805 127.69798 30.28718 127.60423Q30.53718 127.49486 30.709055 127.30736Q30.896555 127.10423 31.00593 126.82298Q31.13093 126.54173 31.19343 126.21361Q31.271555 125.88548 31.302805 125.49486Q31.334055 125.10423 31.334055 124.68236Z" fill-rule="nonzero"/><path fill="#000000" d="M26.13093 94.774155Q26.13093 94.899155 26.09968 94.97728Q26.084055 95.03978 26.052805 95.086655Q26.03718 95.13353 25.990305 95.16478Q25.959055 95.180405 25.91218 95.180405L21.959055 95.180405Q21.91218 95.180405 21.88093 95.16478Q21.84968 95.13353 21.802805 95.086655Q21.771555 95.03978 21.75593 94.97728Q21.740305 94.899155 21.740305 94.774155Q21.740305 94.680405 21.75593 94.60228Q21.771555 94.524155 21.802805 94.47728Q21.834055 94.430405 21.865305 94.399155Q21.91218 94.367905 21.959055 94.367905L23.53718 94.367905L23.53718 88.60228L22.06843 89.47728Q21.959055 89.53978 21.88093 89.555405Q21.81843 89.555405 21.771555 89.524155Q21.740305 89.47728 21.72468 89.399155Q21.709055 89.305405 21.709055 89.180405Q21.709055 89.07103 21.709055 89.00853Q21.72468 88.930405 21.740305 88.88353Q21.771555 88.836655 21.802805 88.805405Q21.834055 88.774155 21.88093 88.72728L23.63093 87.617905Q23.646555 87.60228 23.677805 87.586655Q23.72468 87.57103 23.771555 87.57103Q23.834055 87.555405 23.896555 87.555405Q23.97468 87.53978 24.06843 87.53978Q24.209055 87.53978 24.302805 87.555405Q24.396555 87.57103 24.44343 87.586655Q24.50593 87.60228 24.521555 87.649155Q24.53718 87.680405 24.53718 87.711655L24.53718 94.367905L25.91218 94.367905Q25.959055 94.367905 25.990305 94.399155Q26.03718 94.430405 26.06843 94.47728Q26.09968 94.524155 26.115305 94.60228Q26.13093 94.680405 26.13093 94.774155ZM32.068428 92.742905Q32.068428 93.35228 31.865305 93.836655Q31.66218 94.305405 31.28718 94.63353Q30.91218 94.94603 30.396555 95.117905Q29.88093 95.28978 29.240305 95.28978Q28.896555 95.28978 28.56843 95.242905Q28.25593 95.19603 28.00593 95.117905Q27.771555 95.03978 27.59968 94.97728Q27.44343 94.899155 27.396555 94.867905Q27.365305 94.82103 27.34968 94.78978Q27.334055 94.75853 27.31843 94.711655Q27.302805 94.649155 27.28718 94.57103Q27.28718 94.492905 27.28718 94.399155Q27.28718 94.28978 27.28718 94.211655Q27.302805 94.13353 27.31843 94.086655Q27.34968 94.03978 27.38093 94.024155Q27.41218 93.992905 27.459055 93.992905Q27.521555 93.992905 27.63093 94.07103Q27.75593 94.13353 27.959055 94.22728Q28.177805 94.305405 28.47468 94.38353Q28.78718 94.461655 29.209055 94.461655Q29.59968 94.461655 29.927805 94.367905Q30.25593 94.274155 30.490305 94.07103Q30.740305 93.867905 30.865305 93.57103Q31.00593 93.274155 31.00593 92.836655Q31.00593 92.47728 30.88093 92.19603Q30.771555 91.91478 30.53718 91.72728Q30.302805 91.53978 29.94343 91.461655Q29.584055 91.367905 29.06843 91.367905Q28.709055 91.367905 28.44343 91.399155Q28.19343 91.430405 27.97468 91.430405Q27.81843 91.430405 27.740305 91.367905Q27.677805 91.28978 27.677805 91.07103L27.677805 87.97728Q27.677805 87.78978 27.75593 87.69603Q27.84968 87.60228 28.021555 87.60228L31.38093 87.60228Q31.427805 87.60228 31.47468 87.63353Q31.521555 87.649155 31.53718 87.711655Q31.56843 87.75853 31.584055 87.836655Q31.59968 87.91478 31.59968 88.024155Q31.59968 88.242905 31.53718 88.367905Q31.490305 88.47728 31.38093 88.47728L28.552805 88.47728L28.552805 90.60228Q28.75593 90.57103 28.959055 90.57103Q29.177805 90.555405 29.459055 90.555405Q30.115305 90.555405 30.59968 90.711655Q31.084055 90.867905 31.41218 91.16478Q31.740305 91.44603 31.896555 91.85228Q32.068428 92.242905 32.068428 92.742905Z" fill-rule="nonzero"/><path fill="#000000" d="M26.115305 61.50659Q26.115305 61.615967 26.09968 61.69409Q26.084055 61.772217 26.052805 61.834717Q26.021555 61.897217 25.97468 61.928467Q25.94343 61.94409 25.88093 61.94409L21.69343 61.94409Q21.615305 61.94409 21.552805 61.928467Q21.490305 61.897217 21.44343 61.85034Q21.396555 61.803467 21.38093 61.72534Q21.365305 61.63159 21.365305 61.50659Q21.365305 61.38159 21.365305 61.303467Q21.38093 61.209717 21.41218 61.147217Q21.44343 61.06909 21.47468 61.00659Q21.521555 60.94409 21.59968 60.865967L23.06843 59.303467Q23.584055 58.772217 23.88093 58.35034Q24.19343 57.91284 24.34968 57.56909Q24.521555 57.209717 24.56843 56.928467Q24.63093 56.63159 24.63093 56.38159Q24.63093 56.13159 24.552805 55.91284Q24.47468 55.678467 24.31843 55.50659Q24.16218 55.334717 23.927805 55.240967Q23.69343 55.147217 23.38093 55.147217Q23.021555 55.147217 22.740305 55.240967Q22.459055 55.334717 22.240305 55.459717Q22.03718 55.56909 21.88093 55.678467Q21.740305 55.772217 21.677805 55.772217Q21.63093 55.772217 21.59968 55.75659Q21.56843 55.72534 21.53718 55.678467Q21.521555 55.615967 21.50593 55.53784Q21.50593 55.44409 21.50593 55.31909Q21.50593 55.240967 21.50593 55.178467Q21.521555 55.10034 21.521555 55.053467Q21.53718 55.00659 21.552805 54.97534Q21.584055 54.928467 21.646555 54.865967Q21.72468 54.803467 21.896555 54.709717Q22.084055 54.60034 22.334055 54.50659Q22.59968 54.397217 22.91218 54.334717Q23.22468 54.25659 23.56843 54.25659Q24.115305 54.25659 24.521555 54.41284Q24.94343 54.553467 25.209055 54.834717Q25.490305 55.10034 25.615305 55.459717Q25.75593 55.81909 25.75593 56.22534Q25.75593 56.584717 25.69343 56.94409Q25.63093 57.303467 25.427805 57.72534Q25.22468 58.147217 24.81843 58.66284Q24.427805 59.16284 23.78718 59.834717L22.584055 61.084717L25.88093 61.084717Q25.927805 61.084717 25.97468 61.115967Q26.021555 61.147217 26.052805 61.19409Q26.084055 61.240967 26.09968 61.31909Q26.115305 61.397217 26.115305 61.50659ZM32.365303 58.13159Q32.365303 59.00659 32.224678 59.72534Q32.084053 60.44409 31.75593 60.97534Q31.44343 61.490967 30.927805 61.772217Q30.41218 62.053467 29.66218 62.053467Q28.94343 62.053467 28.44343 61.803467Q27.959055 61.53784 27.66218 61.053467Q27.365305 60.553467 27.240305 59.834717Q27.115305 59.10034 27.115305 58.16284Q27.115305 57.303467 27.25593 56.584717Q27.396555 55.85034 27.709055 55.334717Q28.03718 54.81909 28.552805 54.53784Q29.06843 54.25659 29.81843 54.25659Q30.53718 54.25659 31.021555 54.50659Q31.50593 54.75659 31.802805 55.25659Q32.115303 55.75659 32.240303 56.47534Q32.365303 57.19409 32.365303 58.13159ZM31.334055 58.209717Q31.334055 57.63159 31.28718 57.19409Q31.240305 56.740967 31.16218 56.397217Q31.084055 56.03784 30.959055 55.78784Q30.834055 55.53784 30.66218 55.38159Q30.490305 55.22534 30.25593 55.147217Q30.03718 55.06909 29.75593 55.06909Q29.25593 55.06909 28.94343 55.303467Q28.63093 55.53784 28.44343 55.959717Q28.271555 56.365967 28.209055 56.91284Q28.146555 57.459717 28.146555 58.10034Q28.146555 58.94409 28.22468 59.53784Q28.31843 60.13159 28.50593 60.50659Q28.709055 60.88159 29.00593 61.053467Q29.302805 61.22534 29.72468 61.22534Q30.052805 61.22534 30.28718 61.13159Q30.53718 61.022217 30.709055 60.834717Q30.896555 60.63159 31.00593 60.35034Q31.13093 60.06909 31.19343 59.740967Q31.271555 59.41284 31.302805 59.022217Q31.334055 58.63159 31.334055 58.209717Z" fill-rule="nonzero"/><path fill="#000000" d="M95.80781 206.52998Q95.85468 206.65498 95.85468 206.73311Q95.85468 206.81123 95.80781 206.85811Q95.76093 206.90498 95.65156 206.90498Q95.54218 206.92061 95.37031 206.92061Q95.18281 206.92061 95.07343 206.90498Q94.96406 206.90498 94.90156 206.88936Q94.85468 206.85811 94.82343 206.82686Q94.80781 206.79561 94.77656 206.74873L94.13593 204.88936L90.97968 204.88936L90.35468 206.71748Q90.33906 206.76436 90.30781 206.81123Q90.27656 206.84248 90.21406 206.87373Q90.16718 206.90498 90.05781 206.90498Q89.96406 206.92061 89.80781 206.92061Q89.63593 206.92061 89.52656 206.90498Q89.41718 206.88936 89.37031 206.85811Q89.32343 206.81123 89.32343 206.73311Q89.33906 206.65498 89.38593 206.52998L91.91718 199.48311Q91.94843 199.42061 91.97968 199.38936Q92.02656 199.34248 92.08906 199.32686Q92.16718 199.29561 92.27656 199.27998Q92.40156 199.26436 92.57343 199.26436Q92.76093 199.26436 92.88593 199.27998Q93.01093 199.29561 93.07343 199.32686Q93.15156 199.34248 93.19843 199.38936Q93.24531 199.42061 93.26093 199.48311L95.80781 206.52998ZM92.54218 200.31123L92.54218 200.31123L91.22968 204.09248L93.87031 204.09248L92.54218 200.31123ZM102.12031 204.71748Q102.12031 205.07686 102.02656 205.37373Q101.94843 205.67061 101.77656 205.92061Q101.62031 206.15498 101.38593 206.34248Q101.15156 206.51436 100.85468 206.63936Q100.57343 206.76436 100.24531 206.82686Q99.91718 206.88936 99.47968 206.88936L97.51093 206.88936Q97.37031 206.88936 97.24531 206.79561Q97.13593 206.70186 97.13593 206.48311L97.13593 199.71748Q97.13593 199.48311 97.24531 199.40498Q97.37031 199.31123 97.51093 199.31123L99.22968 199.31123Q99.90156 199.31123 100.33906 199.43623Q100.77656 199.56123 101.05781 199.81123Q101.35468 200.06123 101.49531 200.42061Q101.65156 200.76436 101.65156 201.21748Q101.65156 201.49873 101.57343 201.74873Q101.51093 201.98311 101.38593 202.20186Q101.26093 202.40498 101.07343 202.57686Q100.88593 202.73311 100.63593 202.82686Q100.94843 202.88936 101.21406 203.04561Q101.49531 203.20186 101.68281 203.45186Q101.88593 203.68623 101.99531 204.01436Q102.12031 204.32686 102.12031 204.71748ZM100.60468 201.32686Q100.60468 201.04561 100.52656 200.82686Q100.46406 200.60811 100.29218 200.45186Q100.13593 200.29561 99.87031 200.21748Q99.60468 200.12373 99.16718 200.12373L98.12031 200.12373L98.12031 202.57686L99.27656 202.57686Q99.66718 202.57686 99.90156 202.48311Q100.15156 202.37373 100.30781 202.20186Q100.46406 202.02998 100.52656 201.79561Q100.60468 201.56123 100.60468 201.32686ZM101.07343 204.77998Q101.07343 204.43623 100.96406 204.18623Q100.85468 203.92061 100.63593 203.74873Q100.43281 203.56123 100.12031 203.48311Q99.80781 203.38936 99.33906 203.38936L98.12031 203.38936L98.12031 206.06123L99.58906 206.06123Q99.93281 206.06123 100.18281 205.98311Q100.44843 205.88936 100.63593 205.73311Q100.83906 205.57686 100.94843 205.34248Q101.07343 205.09248 101.07343 204.77998ZM109.19843 205.81123Q109.19843 205.90498 109.18281 205.98311Q109.18281 206.04561 109.16718 206.10811Q109.15156 206.15498 109.12031 206.20186Q109.10468 206.23311 109.04218 206.29561Q108.97968 206.35811 108.79218 206.48311Q108.60468 206.59248 108.32343 206.71748Q108.05781 206.82686 107.69843 206.90498Q107.33906 206.98311 106.90156 206.98311Q106.16718 206.98311 105.57343 206.73311Q104.97968 206.48311 104.55781 206.01436Q104.13593 205.52998 103.90156 204.82686Q103.68281 204.12373 103.68281 203.20186Q103.68281 202.24873 103.93281 201.51436Q104.18281 200.77998 104.62031 200.26436Q105.05781 199.74873 105.66718 199.48311Q106.27656 199.21748 107.02656 199.21748Q107.35468 199.21748 107.66718 199.27998Q107.97968 199.34248 108.22968 199.43623Q108.49531 199.52998 108.69843 199.65498Q108.91718 199.76436 108.99531 199.84248Q109.07343 199.92061 109.08906 199.96748Q109.12031 200.01436 109.13593 200.07686Q109.15156 200.12373 109.15156 200.20186Q109.16718 200.27998 109.16718 200.37373Q109.16718 200.49873 109.15156 200.57686Q109.13593 200.65498 109.10468 200.71748Q109.08906 200.76436 109.05781 200.79561Q109.02656 200.82686 108.97968 200.82686Q108.90156 200.82686 108.74531 200.71748Q108.60468 200.59248 108.37031 200.46748Q108.13593 200.32686 107.80781 200.21748Q107.47968 200.09248 107.01093 200.09248Q106.51093 200.09248 106.08906 200.29561Q105.68281 200.49873 105.38593 200.88936Q105.10468 201.27998 104.93281 201.84248Q104.77656 202.40498 104.77656 203.13936Q104.77656 203.85811 104.93281 204.42061Q105.08906 204.96748 105.37031 205.34248Q105.66718 205.71748 106.08906 205.90498Q106.51093 206.09248 107.04218 206.09248Q107.49531 206.09248 107.82343 205.98311Q108.16718 205.87373 108.40156 205.73311Q108.65156 205.59248 108.79218 205.48311Q108.94843 205.37373 109.04218 205.37373Q109.07343 205.37373 109.10468 205.38936Q109.13593 205.40498 109.15156 205.45186Q109.16718 205.49873 109.18281 205.59248Q109.19843 205.68623 109.19843 205.81123ZM117.05781 206.45186Q117.05781 206.56123 117.04218 206.63936Q117.04218 206.71748 117.01093 206.77998Q116.97968 206.84248 116.93281 206.87373Q116.90156 206.88936 116.85468 206.88936L113.51093 206.88936Q113.37031 206.88936 113.24531 206.79561Q113.13593 206.70186 113.13593 206.48311L113.13593 199.45186Q113.13593 199.40498 113.15156 199.37373Q113.18281 199.34248 113.22968 199.32686Q113.29218 199.29561 113.38593 199.27998Q113.49531 199.26436 113.63593 199.26436Q113.77656 199.26436 113.87031 199.27998Q113.97968 199.29561 114.02656 199.32686Q114.08906 199.34248 114.10468 199.37373Q114.13593 199.40498 114.13593 199.45186L114.13593 206.01436L116.85468 206.01436Q116.90156 206.01436 116.93281 206.04561Q116.97968 206.06123 117.01093 206.12373Q117.04218 206.17061 117.04218 206.24873Q117.05781 206.32686 117.05781 206.45186ZM122.88593 199.73311Q122.88593 199.85811 122.87031 199.93623Q122.85468 200.01436 122.82343 200.06123Q122.80781 200.10811 122.76093 200.13936Q122.72968 200.15498 122.68281 200.15498L120.54218 200.15498L120.54218 206.73311Q120.54218 206.77998 120.51093 206.82686Q120.49531 206.85811 120.43281 206.87373Q120.38593 206.88936 120.29218 206.90498Q120.19843 206.92061 120.04218 206.92061Q119.90156 206.92061 119.79218 206.90498Q119.69843 206.88936 119.63593 206.87373Q119.58906 206.85811 119.55781 206.82686Q119.54218 206.77998 119.54218 206.73311L119.54218 200.15498L117.40156 200.15498Q117.35468 200.15498 117.32343 200.13936Q117.29218 200.10811 117.26093 200.06123Q117.24531 200.01436 117.22968 199.93623Q117.21406 199.85811 117.21406 199.73311Q117.21406 199.62373 117.22968 199.54561Q117.24531 199.45186 117.26093 199.40498Q117.29218 199.35811 117.32343 199.34248Q117.35468 199.31123 117.40156 199.31123L122.68281 199.31123Q122.72968 199.31123 122.76093 199.34248Q122.80781 199.35811 122.82343 199.40498Q122.85468 199.45186 122.87031 199.54561Q122.88593 199.62373 122.88593 199.73311ZM129.96405 202.98311Q129.96405 203.96748 129.69843 204.70186Q129.44843 205.43623 128.96405 205.92061Q128.4953 206.40498 127.79218 206.65498Q127.08906 206.88936 126.10468 206.88936L124.51093 206.88936Q124.37031 206.88936 124.24531 206.79561Q124.13593 206.70186 124.13593 206.48311L124.13593 199.71748Q124.13593 199.48311 124.24531 199.40498Q124.37031 199.31123 124.51093 199.31123L126.21406 199.31123Q127.19843 199.31123 127.87031 199.56123Q128.5578 199.81123 129.01093 200.29561Q129.47968 200.76436 129.71405 201.45186Q129.96405 202.12373 129.96405 202.98311ZM128.90155 203.02998Q128.90155 202.40498 128.7453 201.88936Q128.58905 201.35811 128.26093 200.96748Q127.94843 200.57686 127.44843 200.35811Q126.94843 200.13936 126.16718 200.13936L125.13593 200.13936L125.13593 206.04561L126.16718 206.04561Q126.90156 206.04561 127.40156 205.87373Q127.90156 205.68623 128.22968 205.31123Q128.5578 204.93623 128.72968 204.37373Q128.90155 203.79561 128.90155 203.02998Z" fill-rule="nonzero"/><path fill="#000000" d="M189.10979 201.52998Q189.10979 202.09248 188.92229 202.56123Q188.73479 203.01436 188.37541 203.34248Q188.03166 203.65498 187.51604 203.82686Q187.01604 203.99873 186.31291 203.99873L185.45354 203.99873L185.45354 206.73311Q185.45354 206.77998 185.42229 206.82686Q185.40666 206.85811 185.34416 206.87373Q185.29729 206.88936 185.18791 206.90498Q185.09416 206.92061 184.95354 206.92061Q184.79729 206.92061 184.70354 206.90498Q184.60979 206.88936 184.54729 206.87373Q184.50041 206.85811 184.46916 206.82686Q184.45354 206.77998 184.45354 206.73311L184.45354 199.73311Q184.45354 199.49873 184.56291 199.40498Q184.68791 199.31123 184.84416 199.31123L186.46916 199.31123Q186.71916 199.31123 186.93791 199.32686Q187.17229 199.34248 187.46916 199.42061Q187.78166 199.48311 188.09416 199.67061Q188.42229 199.85811 188.64104 200.12373Q188.85979 200.38936 188.98479 200.74873Q189.10979 201.09248 189.10979 201.52998ZM188.04729 201.60811Q188.04729 201.13936 187.87541 200.84248Q187.70354 200.52998 187.43791 200.37373Q187.18791 200.21748 186.90666 200.18623Q186.64104 200.13936 186.39104 200.13936L185.45354 200.13936L185.45354 203.18623L186.35979 203.18623Q186.81291 203.18623 187.10979 203.07686Q187.42229 202.95186 187.62541 202.74873Q187.82854 202.52998 187.93791 202.24873Q188.04729 201.95186 188.04729 201.60811ZM195.23479 204.04561Q195.23479 204.68623 195.06291 205.23311Q194.90666 205.77998 194.56291 206.17061Q194.21916 206.56123 193.71916 206.77998Q193.21916 206.99873 192.54729 206.99873Q191.89104 206.99873 191.40666 206.81123Q190.92229 206.60811 190.59416 206.24873Q190.28166 205.87373 190.12541 205.35811Q189.96916 204.82686 189.96916 204.15498Q189.96916 203.51436 190.12541 202.96748Q190.29729 202.42061 190.62541 202.02998Q190.96916 201.63936 191.46916 201.42061Q191.98479 201.20186 192.65666 201.20186Q193.31291 201.20186 193.78166 201.40498Q194.26604 201.59248 194.59416 201.96748Q194.92229 202.32686 195.07854 202.85811Q195.23479 203.38936 195.23479 204.04561ZM194.21916 204.10811Q194.21916 203.68623 194.14104 203.31123Q194.06291 202.92061 193.87541 202.63936Q193.70354 202.34248 193.39104 202.18623Q193.07854 202.01436 192.60979 202.01436Q192.18791 202.01436 191.87541 202.17061Q191.57854 202.31123 191.37541 202.59248Q191.17229 202.87373 191.07854 203.26436Q190.98479 203.63936 190.98479 204.09248Q190.98479 204.51436 191.06291 204.90498Q191.14104 205.27998 191.31291 205.57686Q191.50041 205.85811 191.81291 206.02998Q192.12541 206.18623 192.59416 206.18623Q193.01604 206.18623 193.32854 206.02998Q193.64104 205.87373 193.82854 205.60811Q194.03166 205.32686 194.12541 204.95186Q194.21916 204.56123 194.21916 204.10811ZM204.71916 201.45186Q204.71916 201.49873 204.70354 201.56123Q204.68791 201.60811 204.65666 201.70186L203.10979 206.71748Q203.09416 206.77998 203.04729 206.82686Q203.01604 206.85811 202.93791 206.88936Q202.87541 206.90498 202.75041 206.90498Q202.64104 206.92061 202.46916 206.92061Q202.28166 206.92061 202.15666 206.90498Q202.04729 206.90498 201.96916 206.88936Q201.89104 206.85811 201.85979 206.81123Q201.82854 206.76436 201.81291 206.71748L200.70354 202.88936L200.68791 202.82686L200.67229 202.88936L199.65666 206.71748Q199.62541 206.77998 199.59416 206.82686Q199.56291 206.85811 199.48479 206.88936Q199.40666 206.90498 199.28166 206.90498Q199.15666 206.92061 198.98479 206.92061Q198.81291 206.92061 198.68791 206.90498Q198.57854 206.90498 198.50041 206.88936Q198.43791 206.85811 198.39104 206.81123Q198.35979 206.76436 198.34416 206.71748L196.79729 201.70186Q196.76604 201.60811 196.75041 201.56123Q196.75041 201.49873 196.75041 201.45186Q196.75041 201.40498 196.76604 201.37373Q196.79729 201.34248 196.84416 201.32686Q196.90666 201.29561 197.00041 201.29561Q197.09416 201.27998 197.23479 201.27998Q197.39104 201.27998 197.48479 201.29561Q197.59416 201.31123 197.64104 201.32686Q197.70354 201.34248 197.71916 201.38936Q197.75041 201.42061 197.76604 201.46748L199.03166 205.82686L199.04729 205.87373L199.06291 205.82686L200.21916 201.46748Q200.23479 201.42061 200.25041 201.38936Q200.28166 201.34248 200.32854 201.32686Q200.39104 201.31123 200.48479 201.29561Q200.57854 201.27998 200.71916 201.27998Q200.85979 201.27998 200.95354 201.29561Q201.04729 201.31123 201.09416 201.32686Q201.15666 201.34248 201.17229 201.38936Q201.20354 201.42061 201.20354 201.46748L202.46916 205.82686L202.48479 205.87373L202.48479 205.82686L203.73479 201.46748Q203.75041 201.42061 203.76604 201.38936Q203.79729 201.34248 203.85979 201.32686Q203.92229 201.31123 204.01604 201.29561Q204.10979 201.27998 204.26604 201.27998Q204.40666 201.27998 204.48479 201.29561Q204.57854 201.29561 204.62541 201.32686Q204.67229 201.34248 204.68791 201.37373Q204.71916 201.40498 204.71916 201.45186ZM210.82854 203.87373Q210.82854 204.10811 210.71916 204.20186Q210.60979 204.29561 210.45354 204.29561L207.00041 204.29561Q207.00041 204.73311 207.07854 205.09248Q207.17229 205.43623 207.37541 205.70186Q207.59416 205.95186 207.92229 206.09248Q208.25041 206.21748 208.71916 206.21748Q209.09416 206.21748 209.39104 206.15498Q209.68791 206.09248 209.89104 206.01436Q210.10979 205.93623 210.25041 205.87373Q210.39104 205.81123 210.45354 205.81123Q210.50041 205.81123 210.53166 205.84248Q210.56291 205.85811 210.57854 205.90498Q210.59416 205.93623 210.59416 206.01436Q210.60979 206.09248 210.60979 206.18623Q210.60979 206.26436 210.59416 206.32686Q210.59416 206.37373 210.57854 206.42061Q210.57854 206.46748 210.56291 206.49873Q210.54729 206.52998 210.51604 206.57686Q210.48479 206.60811 210.31291 206.68623Q210.15666 206.74873 209.90666 206.82686Q209.65666 206.88936 209.32854 206.93623Q209.00041 206.99873 208.62541 206.99873Q207.96916 206.99873 207.46916 206.82686Q206.98479 206.63936 206.65666 206.27998Q206.32854 205.92061 206.15666 205.38936Q205.98479 204.84248 205.98479 204.12373Q205.98479 203.45186 206.15666 202.90498Q206.32854 202.35811 206.65666 201.98311Q207.00041 201.60811 207.46916 201.40498Q207.93791 201.20186 208.51604 201.20186Q209.14104 201.20186 209.57854 201.40498Q210.01604 201.60811 210.29729 201.95186Q210.57854 202.27998 210.70354 202.73311Q210.82854 203.18623 210.82854 203.70186L210.82854 203.87373ZM209.85979 203.59248Q209.87541 202.82686 209.51604 202.40498Q209.17229 201.96748 208.46916 201.96748Q208.10979 201.96748 207.84416 202.10811Q207.57854 202.23311 207.39104 202.45186Q207.21916 202.67061 207.10979 202.96748Q207.01604 203.26436 207.00041 203.59248L209.85979 203.59248ZM216.42229 201.81123Q216.42229 201.93623 216.40666 202.02998Q216.40666 202.12373 216.39104 202.17061Q216.37541 202.21748 216.34416 202.24873Q216.31291 202.26436 216.26604 202.26436Q216.21916 202.26436 216.15666 202.24873Q216.09416 202.21748 216.00041 202.20186Q215.92229 202.17061 215.81291 202.15498Q215.70354 202.12373 215.57854 202.12373Q215.43791 202.12373 215.29729 202.18623Q215.15666 202.23311 215.00041 202.37373Q214.84416 202.49873 214.67229 202.73311Q214.50041 202.95186 214.29729 203.27998L214.29729 206.74873Q214.29729 206.79561 214.26604 206.82686Q214.25041 206.85811 214.20354 206.88936Q214.15666 206.90498 214.06291 206.90498Q213.96916 206.92061 213.81291 206.92061Q213.67229 206.92061 213.57854 206.90498Q213.48479 206.90498 213.42229 206.88936Q213.37541 206.85811 213.34416 206.82686Q213.32854 206.79561 213.32854 206.74873L213.32854 201.46748Q213.32854 201.42061 213.34416 201.38936Q213.37541 201.35811 213.42229 201.34248Q213.46916 201.31123 213.54729 201.29561Q213.64104 201.27998 213.78166 201.27998Q213.90666 201.27998 213.98479 201.29561Q214.07854 201.31123 214.12541 201.34248Q214.17229 201.35811 214.18791 201.38936Q214.20354 201.42061 214.20354 201.46748L214.20354 202.23311Q214.42229 201.92061 214.60979 201.71748Q214.81291 201.51436 214.96916 201.40498Q215.14104 201.29561 215.31291 201.24873Q215.48479 201.20186 215.65666 201.20186Q215.71916 201.20186 215.81291 201.21748Q215.92229 201.21748 216.01604 201.24873Q216.12541 201.26436 216.20354 201.29561Q216.29729 201.32686 216.32854 201.35811Q216.37541 201.38936 216.37541 201.42061Q216.39104 201.43623 216.39104 201.48311Q216.40666 201.51436 216.40666 201.60811Q216.42229 201.68623 216.42229 201.81123ZM225.43791 204.71748Q225.43791 205.07686 225.34416 205.37373Q225.26604 205.67061 225.09416 205.92061Q224.93791 206.15498 224.70354 206.34248Q224.46916 206.51436 224.17229 206.63936Q223.89104 206.76436 223.56291 206.82686Q223.23479 206.88936 222.79729 206.88936L220.82854 206.88936Q220.68791 206.88936 220.56291 206.79561Q220.45354 206.70186 220.45354 206.48311L220.45354 199.71748Q220.45354 199.48311 220.56291 199.40498Q220.68791 199.31123 220.82854 199.31123L222.54729 199.31123Q223.21916 199.31123 223.65666 199.43623Q224.09416 199.56123 224.37541 199.81123Q224.67229 200.06123 224.81291 200.42061Q224.96916 200.76436 224.96916 201.21748Q224.96916 201.49873 224.89104 201.74873Q224.82854 201.98311 224.70354 202.20186Q224.57854 202.40498 224.39104 202.57686Q224.20354 202.73311 223.95354 202.82686Q224.26604 202.88936 224.53166 203.04561Q224.81291 203.20186 225.00041 203.45186Q225.20354 203.68623 225.31291 204.01436Q225.43791 204.32686 225.43791 204.71748ZM223.92229 201.32686Q223.92229 201.04561 223.84416 200.82686Q223.78166 200.60811 223.60979 200.45186Q223.45354 200.29561 223.18791 200.21748Q222.92229 200.12373 222.48479 200.12373L221.43791 200.12373L221.43791 202.57686L222.59416 202.57686Q222.98479 202.57686 223.21916 202.48311Q223.46916 202.37373 223.62541 202.20186Q223.78166 202.02998 223.84416 201.79561Q223.92229 201.56123 223.92229 201.32686ZM224.39104 204.77998Q224.39104 204.43623 224.28166 204.18623Q224.17229 203.92061 223.95354 203.74873Q223.75041 203.56123 223.43791 203.48311Q223.12541 203.38936 222.65666 203.38936L221.43791 203.38936L221.43791 206.06123L222.90666 206.06123Q223.25041 206.06123 223.50041 205.98311Q223.76604 205.88936 223.95354 205.73311Q224.15666 205.57686 224.26604 205.34248Q224.39104 205.09248 224.39104 204.77998ZM231.85979 206.74873Q231.85979 206.79561 231.82854 206.82686Q231.81291 206.85811 231.75041 206.88936Q231.70354 206.90498 231.60979 206.90498Q231.53166 206.92061 231.40666 206.92061Q231.28166 206.92061 231.18791 206.90498Q231.10979 206.90498 231.06291 206.88936Q231.01604 206.85811 230.98479 206.82686Q230.96916 206.79561 230.96916 206.74873L230.96916 206.04561Q230.51604 206.54561 230.07854 206.77998Q229.64104 206.99873 229.18791 206.99873Q228.67229 206.99873 228.29729 206.82686Q227.93791 206.65498 227.71916 206.35811Q227.50041 206.04561 227.40666 205.65498Q227.31291 205.24873 227.31291 204.67061L227.31291 201.46748Q227.31291 201.42061 227.32854 201.38936Q227.34416 201.35811 227.40666 201.34248Q227.46916 201.31123 227.56291 201.29561Q227.65666 201.27998 227.79729 201.27998Q227.93791 201.27998 228.03166 201.29561Q228.12541 201.31123 228.17229 201.34248Q228.23479 201.35811 228.25041 201.38936Q228.28166 201.42061 228.28166 201.46748L228.28166 204.54561Q228.28166 204.99873 228.34416 205.27998Q228.40666 205.56123 228.54729 205.76436Q228.68791 205.95186 228.89104 206.06123Q229.10979 206.17061 229.39104 206.17061Q229.75041 206.17061 230.10979 205.92061Q230.46916 205.65498 230.87541 205.15498L230.87541 201.46748Q230.87541 201.42061 230.89104 201.38936Q230.92229 201.35811 230.96916 201.34248Q231.03166 201.31123 231.12541 201.29561Q231.21916 201.27998 231.35979 201.27998Q231.50041 201.27998 231.59416 201.29561Q231.68791 201.31123 231.73479 201.34248Q231.79729 201.35811 231.82854 201.38936Q231.85979 201.42061 231.85979 201.46748L231.85979 206.74873ZM235.29729 206.74873Q235.29729 206.79561 235.26604 206.82686Q235.25041 206.85811 235.20354 206.88936Q235.15666 206.90498 235.06291 206.90498Q234.96916 206.92061 234.81291 206.92061Q234.67229 206.92061 234.57854 206.90498Q234.48479 206.90498 234.42229 206.88936Q234.37541 206.85811 234.34416 206.82686Q234.32854 206.79561 234.32854 206.74873L234.32854 201.46748Q234.32854 201.42061 234.34416 201.38936Q234.37541 201.35811 234.42229 201.34248Q234.48479 201.31123 234.57854 201.29561Q234.67229 201.27998 234.81291 201.27998Q234.96916 201.27998 235.06291 201.29561Q235.15666 201.31123 235.20354 201.34248Q235.25041 201.35811 235.26604 201.38936Q235.29729 201.42061 235.29729 201.46748L235.29729 206.74873ZM235.40666 199.68623Q235.40666 200.02998 235.28166 200.15498Q235.15666 200.27998 234.81291 200.27998Q234.46916 200.27998 234.34416 200.15498Q234.21916 200.02998 234.21916 199.70186Q234.21916 199.35811 234.34416 199.23311Q234.46916 199.10811 234.82854 199.10811Q235.15666 199.10811 235.28166 199.23311Q235.40666 199.35811 235.40666 199.68623ZM239.29729 206.74873Q239.29729 206.79561 239.26604 206.82686Q239.25041 206.85811 239.20354 206.88936Q239.15666 206.90498 239.06291 206.90498Q238.96916 206.92061 238.81291 206.92061Q238.67229 206.92061 238.57854 206.90498Q238.48479 206.90498 238.42229 206.88936Q238.37541 206.85811 238.34416 206.82686Q238.32854 206.79561 238.32854 206.74873L238.32854 198.92061Q238.32854 198.87373 238.34416 198.84248Q238.37541 198.79561 238.42229 198.77998Q238.48479 198.74873 238.57854 198.74873Q238.67229 198.73311 238.81291 198.73311Q238.96916 198.73311 239.06291 198.74873Q239.15666 198.74873 239.20354 198.77998Q239.25041 198.79561 239.26604 198.84248Q239.29729 198.87373 239.29729 198.92061L239.29729 206.74873ZM246.85979 206.74873Q246.85979 206.79561 246.82854 206.82686Q246.81291 206.85811 246.76604 206.88936Q246.71916 206.90498 246.62541 206.90498Q246.54729 206.92061 246.43791 206.92061Q246.31291 206.92061 246.21916 206.90498Q246.14104 206.90498 246.07854 206.88936Q246.03166 206.85811 246.00041 206.82686Q245.98479 206.79561 245.98479 206.74873L245.98479 206.04561Q245.57854 206.49873 245.12541 206.74873Q244.67229 206.99873 244.14104 206.99873Q243.56291 206.99873 243.15666 206.77998Q242.75041 206.54561 242.48479 206.17061Q242.23479 205.77998 242.10979 205.26436Q242.00041 204.74873 242.00041 204.17061Q242.00041 203.48311 242.14104 202.93623Q242.29729 202.38936 242.57854 202.01436Q242.87541 201.62373 243.29729 201.42061Q243.71916 201.20186 244.28166 201.20186Q244.73479 201.20186 245.10979 201.40498Q245.50041 201.60811 245.87541 201.99873L245.87541 198.93623Q245.87541 198.88936 245.89104 198.85811Q245.92229 198.82686 245.96916 198.81123Q246.03166 198.77998 246.12541 198.76436Q246.21916 198.74873 246.35979 198.74873Q246.50041 198.74873 246.59416 198.76436Q246.68791 198.77998 246.73479 198.81123Q246.79729 198.82686 246.82854 198.85811Q246.85979 198.88936 246.85979 198.93623L246.85979 206.74873ZM245.87541 203.02998Q245.48479 202.54561 245.10979 202.29561Q244.75041 202.02998 244.35979 202.02998Q243.98479 202.02998 243.71916 202.21748Q243.46916 202.38936 243.31291 202.68623Q243.15666 202.96748 243.07854 203.32686Q243.00041 203.68623 243.00041 204.06123Q243.00041 204.46748 243.06291 204.84248Q243.12541 205.21748 243.28166 205.51436Q243.43791 205.81123 243.68791 205.99873Q243.93791 206.17061 244.31291 206.17061Q244.51604 206.17061 244.68791 206.12373Q244.85979 206.06123 245.04729 205.95186Q245.23479 205.82686 245.43791 205.63936Q245.65666 205.43623 245.87541 205.13936L245.87541 203.02998Z" fill-rule="nonzero"/><path fill="#000000" d="M292.59927 206.52998Q292.66177 206.65498 292.6774 206.73311Q292.69302 206.81123 292.64615 206.85811Q292.59927 206.88936 292.47427 206.90498Q292.34927 206.92061 292.14615 206.92061Q291.95865 206.92061 291.84927 206.90498Q291.75552 206.90498 291.69302 206.88936Q291.63052 206.85811 291.59927 206.82686Q291.56802 206.79561 291.53677 206.74873L289.84927 203.71748L288.14615 206.74873Q288.1149 206.79561 288.08365 206.82686Q288.0524 206.85811 287.9899 206.88936Q287.9274 206.90498 287.81802 206.90498Q287.72427 206.92061 287.53677 206.92061Q287.34927 206.92061 287.2399 206.90498Q287.13052 206.88936 287.08365 206.85811Q287.03677 206.81123 287.0524 206.73311Q287.06802 206.65498 287.14615 206.52998L289.20865 203.04561L287.2399 199.67061Q287.16177 199.54561 287.14615 199.46748Q287.13052 199.38936 287.1774 199.34248Q287.22427 199.29561 287.33365 199.27998Q287.45865 199.26436 287.66177 199.26436Q287.83365 199.26436 287.94302 199.27998Q288.0524 199.29561 288.1149 199.31123Q288.19302 199.32686 288.20865 199.37373Q288.2399 199.40498 288.28677 199.45186L289.91177 202.29561L291.52115 199.45186Q291.5524 199.40498 291.58365 199.37373Q291.6149 199.32686 291.66177 199.31123Q291.72427 199.29561 291.81802 199.27998Q291.9274 199.26436 292.09927 199.26436Q292.27115 199.26436 292.38052 199.27998Q292.50552 199.29561 292.5524 199.34248Q292.59927 199.38936 292.58365 199.46748Q292.58365 199.54561 292.50552 199.67061L290.53677 203.01436L292.59927 206.52998ZM298.50552 204.02998Q298.50552 204.71748 298.34927 205.26436Q298.20865 205.81123 297.91177 206.20186Q297.63052 206.57686 297.19302 206.79561Q296.77115 206.99873 296.22427 206.99873Q295.9899 206.99873 295.78677 206.95186Q295.58365 206.90498 295.39615 206.81123Q295.20865 206.70186 295.02115 206.56123Q294.83365 206.40498 294.6149 206.20186L294.6149 208.84248Q294.6149 208.88936 294.58365 208.92061Q294.56802 208.95186 294.52115 208.96748Q294.47427 208.99873 294.38052 209.01436Q294.28677 209.02998 294.13052 209.02998Q293.9899 209.02998 293.89615 209.01436Q293.8024 208.99873 293.7399 208.96748Q293.69302 208.95186 293.66177 208.92061Q293.64615 208.88936 293.64615 208.84248L293.64615 201.46748Q293.64615 201.42061 293.66177 201.38936Q293.69302 201.35811 293.7399 201.34248Q293.78677 201.31123 293.8649 201.29561Q293.95865 201.27998 294.06802 201.27998Q294.19302 201.27998 294.27115 201.29561Q294.34927 201.31123 294.39615 201.34248Q294.45865 201.35811 294.47427 201.38936Q294.50552 201.42061 294.50552 201.46748L294.50552 202.17061Q294.7399 201.93623 294.95865 201.74873Q295.19302 201.56123 295.41177 201.45186Q295.64615 201.32686 295.88052 201.26436Q296.1149 201.20186 296.38052 201.20186Q296.95865 201.20186 297.34927 201.43623Q297.75552 201.65498 298.00552 202.04561Q298.27115 202.42061 298.38052 202.93623Q298.50552 203.45186 298.50552 204.02998ZM297.4899 204.13936Q297.4899 203.73311 297.4274 203.35811Q297.3649 202.96748 297.20865 202.68623Q297.06802 202.38936 296.8024 202.21748Q296.5524 202.02998 296.1774 202.02998Q295.9899 202.02998 295.8024 202.09248Q295.63052 202.15498 295.44302 202.27998Q295.25552 202.38936 295.0524 202.59248Q294.84927 202.77998 294.6149 203.06123L294.6149 205.17061Q295.02115 205.65498 295.38052 205.92061Q295.7399 206.17061 296.13052 206.17061Q296.4899 206.17061 296.7399 205.99873Q297.00552 205.81123 297.16177 205.52998Q297.33365 205.23311 297.41177 204.87373Q297.4899 204.49873 297.4899 204.13936ZM305.14615 203.87373Q305.14615 204.10811 305.03677 204.20186Q304.9274 204.29561 304.77115 204.29561L301.31802 204.29561Q301.31802 204.73311 301.39615 205.09248Q301.4899 205.43623 301.69302 205.70186Q301.91177 205.95186 302.2399 206.09248Q302.56802 206.21748 303.03677 206.21748Q303.41177 206.21748 303.70865 206.15498Q304.00552 206.09248 304.20865 206.01436Q304.4274 205.93623 304.56802 205.87373Q304.70865 205.81123 304.77115 205.81123Q304.81802 205.81123 304.84927 205.84248Q304.88052 205.85811 304.89615 205.90498Q304.91177 205.93623 304.91177 206.01436Q304.9274 206.09248 304.9274 206.18623Q304.9274 206.26436 304.91177 206.32686Q304.91177 206.37373 304.89615 206.42061Q304.89615 206.46748 304.88052 206.49873Q304.8649 206.52998 304.83365 206.57686Q304.8024 206.60811 304.63052 206.68623Q304.47427 206.74873 304.22427 206.82686Q303.97427 206.88936 303.64615 206.93623Q303.31802 206.99873 302.94302 206.99873Q302.28677 206.99873 301.78677 206.82686Q301.3024 206.63936 300.97427 206.27998Q300.64615 205.92061 300.47427 205.38936Q300.3024 204.84248 300.3024 204.12373Q300.3024 203.45186 300.47427 202.90498Q300.64615 202.35811 300.97427 201.98311Q301.31802 201.60811 301.78677 201.40498Q302.25552 201.20186 302.83365 201.20186Q303.45865 201.20186 303.89615 201.40498Q304.33365 201.60811 304.6149 201.95186Q304.89615 202.27998 305.02115 202.73311Q305.14615 203.18623 305.14615 203.70186L305.14615 203.87373ZM304.1774 203.59248Q304.19302 202.82686 303.83365 202.40498Q303.4899 201.96748 302.78677 201.96748Q302.4274 201.96748 302.16177 202.10811Q301.89615 202.23311 301.70865 202.45186Q301.53677 202.67061 301.4274 202.96748Q301.33365 203.26436 301.31802 203.59248L304.1774 203.59248ZM310.7399 201.81123Q310.7399 201.93623 310.72427 202.02998Q310.72427 202.12373 310.70865 202.17061Q310.69302 202.21748 310.66177 202.24873Q310.63052 202.26436 310.58365 202.26436Q310.53677 202.26436 310.47427 202.24873Q310.41177 202.21748 310.31802 202.20186Q310.2399 202.17061 310.13052 202.15498Q310.02115 202.12373 309.89615 202.12373Q309.75552 202.12373 309.6149 202.18623Q309.47427 202.23311 309.31802 202.37373Q309.16177 202.49873 308.9899 202.73311Q308.81802 202.95186 308.6149 203.27998L308.6149 206.74873Q308.6149 206.79561 308.58365 206.82686Q308.56802 206.85811 308.52115 206.88936Q308.47427 206.90498 308.38052 206.90498Q308.28677 206.92061 308.13052 206.92061Q307.9899 206.92061 307.89615 206.90498Q307.8024 206.90498 307.7399 206.88936Q307.69302 206.85811 307.66177 206.82686Q307.64615 206.79561 307.64615 206.74873L307.64615 201.46748Q307.64615 201.42061 307.66177 201.38936Q307.69302 201.35811 307.7399 201.34248Q307.78677 201.31123 307.8649 201.29561Q307.95865 201.27998 308.09927 201.27998Q308.22427 201.27998 308.3024 201.29561Q308.39615 201.31123 308.44302 201.34248Q308.4899 201.35811 308.50552 201.38936Q308.52115 201.42061 308.52115 201.46748L308.52115 202.23311Q308.7399 201.92061 308.9274 201.71748Q309.13052 201.51436 309.28677 201.40498Q309.45865 201.29561 309.63052 201.24873Q309.8024 201.20186 309.97427 201.20186Q310.03677 201.20186 310.13052 201.21748Q310.2399 201.21748 310.33365 201.24873Q310.44302 201.26436 310.52115 201.29561Q310.6149 201.32686 310.64615 201.35811Q310.69302 201.38936 310.69302 201.42061Q310.70865 201.43623 310.70865 201.48311Q310.72427 201.51436 310.72427 201.60811Q310.7399 201.68623 310.7399 201.81123ZM312.6149 206.74873Q312.6149 206.79561 312.58365 206.82686Q312.56802 206.85811 312.52115 206.88936Q312.47427 206.90498 312.38052 206.90498Q312.28677 206.92061 312.13052 206.92061Q311.9899 206.92061 311.89615 206.90498Q311.8024 206.90498 311.7399 206.88936Q311.69302 206.85811 311.66177 206.82686Q311.64615 206.79561 311.64615 206.74873L311.64615 201.46748Q311.64615 201.42061 311.66177 201.38936Q311.69302 201.35811 311.7399 201.34248Q311.8024 201.31123 311.89615 201.29561Q311.9899 201.27998 312.13052 201.27998Q312.28677 201.27998 312.38052 201.29561Q312.47427 201.31123 312.52115 201.34248Q312.56802 201.35811 312.58365 201.38936Q312.6149 201.42061 312.6149 201.46748L312.6149 206.74873ZM312.72427 199.68623Q312.72427 200.02998 312.59927 200.15498Q312.47427 200.27998 312.13052 200.27998Q311.78677 200.27998 311.66177 200.15498Q311.53677 200.02998 311.53677 199.70186Q311.53677 199.35811 311.66177 199.23311Q311.78677 199.10811 312.14615 199.10811Q312.47427 199.10811 312.59927 199.23311Q312.72427 199.35811 312.72427 199.68623ZM319.63052 206.74873Q319.63052 206.81123 319.58365 206.85811Q319.53677 206.88936 319.44302 206.90498Q319.3649 206.92061 319.20865 206.92061Q319.0524 206.92061 318.95865 206.90498Q318.88052 206.88936 318.83365 206.85811Q318.78677 206.81123 318.78677 206.74873L318.78677 206.21748Q318.44302 206.59248 318.02115 206.79561Q317.59927 206.99873 317.13052 206.99873Q316.70865 206.99873 316.3649 206.88936Q316.03677 206.77998 315.78677 206.57686Q315.5524 206.37373 315.4274 206.07686Q315.3024 205.77998 315.3024 205.38936Q315.3024 204.95186 315.47427 204.62373Q315.66177 204.29561 315.9899 204.07686Q316.33365 203.85811 316.81802 203.74873Q317.31802 203.63936 317.94302 203.63936L318.66177 203.63936L318.66177 203.23311Q318.66177 202.92061 318.59927 202.68623Q318.53677 202.45186 318.39615 202.31123Q318.25552 202.15498 318.02115 202.07686Q317.78677 201.98311 317.45865 201.98311Q317.09927 201.98311 316.81802 202.07686Q316.53677 202.15498 316.31802 202.26436Q316.09927 202.35811 315.95865 202.45186Q315.81802 202.52998 315.7399 202.52998Q315.69302 202.52998 315.66177 202.51436Q315.63052 202.48311 315.59927 202.43623Q315.58365 202.38936 315.56802 202.32686Q315.5524 202.24873 315.5524 202.15498Q315.5524 202.01436 315.56802 201.93623Q315.59927 201.84248 315.6774 201.76436Q315.75552 201.68623 315.94302 201.59248Q316.14615 201.48311 316.39615 201.40498Q316.64615 201.31123 316.94302 201.26436Q317.2399 201.20186 317.5524 201.20186Q318.1149 201.20186 318.50552 201.34248Q318.91177 201.46748 319.14615 201.71748Q319.39615 201.96748 319.50552 202.34248Q319.63052 202.70186 319.63052 203.18623L319.63052 206.74873ZM318.66177 204.34248L317.83365 204.34248Q317.44302 204.34248 317.14615 204.40498Q316.84927 204.46748 316.66177 204.60811Q316.47427 204.73311 316.38052 204.92061Q316.28677 205.10811 316.28677 205.34248Q316.28677 205.76436 316.53677 206.01436Q316.8024 206.24873 317.27115 206.24873Q317.66177 206.24873 317.97427 206.06123Q318.3024 205.85811 318.66177 205.45186L318.66177 204.34248ZM327.19302 206.74873Q327.19302 206.79561 327.16177 206.82686Q327.14615 206.85811 327.08365 206.88936Q327.03677 206.90498 326.94302 206.90498Q326.84927 206.92061 326.70865 206.92061Q326.56802 206.92061 326.47427 206.90498Q326.38052 206.90498 326.31802 206.88936Q326.27115 206.85811 326.2399 206.82686Q326.22427 206.79561 326.22427 206.74873L326.22427 203.65498Q326.22427 203.20186 326.14615 202.93623Q326.08365 202.65498 325.94302 202.45186Q325.81802 202.24873 325.59927 202.15498Q325.39615 202.04561 325.1149 202.04561Q324.7399 202.04561 324.38052 202.31123Q324.02115 202.56123 323.6149 203.06123L323.6149 206.74873Q323.6149 206.79561 323.58365 206.82686Q323.56802 206.85811 323.52115 206.88936Q323.47427 206.90498 323.38052 206.90498Q323.28677 206.92061 323.13052 206.92061Q322.9899 206.92061 322.89615 206.90498Q322.8024 206.90498 322.7399 206.88936Q322.69302 206.85811 322.66177 206.82686Q322.64615 206.79561 322.64615 206.74873L322.64615 201.46748Q322.64615 201.42061 322.66177 201.38936Q322.69302 201.35811 322.7399 201.34248Q322.78677 201.31123 322.8649 201.29561Q322.95865 201.27998 323.09927 201.27998Q323.22427 201.27998 323.3024 201.29561Q323.39615 201.31123 323.44302 201.34248Q323.4899 201.35811 323.50552 201.38936Q323.52115 201.42061 323.52115 201.46748L323.52115 202.17061Q323.97427 201.67061 324.41177 201.43623Q324.84927 201.20186 325.3024 201.20186Q325.83365 201.20186 326.19302 201.38936Q326.5524 201.56123 326.77115 201.85811Q327.00552 202.15498 327.09927 202.56123Q327.19302 202.96748 327.19302 203.52998L327.19302 206.74873ZM337.52115 199.73311Q337.52115 199.85811 337.50552 199.93623Q337.4899 200.01436 337.45865 200.06123Q337.44302 200.10811 337.39615 200.13936Q337.3649 200.15498 337.31802 200.15498L335.1774 200.15498L335.1774 206.73311Q335.1774 206.77998 335.14615 206.82686Q335.13052 206.85811 335.06802 206.87373Q335.02115 206.88936 334.9274 206.90498Q334.83365 206.92061 334.6774 206.92061Q334.53677 206.92061 334.4274 206.90498Q334.33365 206.88936 334.27115 206.87373Q334.22427 206.85811 334.19302 206.82686Q334.1774 206.77998 334.1774 206.73311L334.1774 200.15498L332.03677 200.15498Q331.9899 200.15498 331.95865 200.13936Q331.9274 200.10811 331.89615 200.06123Q331.88052 200.01436 331.8649 199.93623Q331.84927 199.85811 331.84927 199.73311Q331.84927 199.62373 331.8649 199.54561Q331.88052 199.45186 331.89615 199.40498Q331.9274 199.35811 331.95865 199.34248Q331.9899 199.31123 332.03677 199.31123L337.31802 199.31123Q337.3649 199.31123 337.39615 199.34248Q337.44302 199.35811 337.45865 199.40498Q337.4899 199.45186 337.50552 199.54561Q337.52115 199.62373 337.52115 199.73311ZM343.14615 203.87373Q343.14615 204.10811 343.03677 204.20186Q342.9274 204.29561 342.77115 204.29561L339.31802 204.29561Q339.31802 204.73311 339.39615 205.09248Q339.4899 205.43623 339.69302 205.70186Q339.91177 205.95186 340.2399 206.09248Q340.56802 206.21748 341.03677 206.21748Q341.41177 206.21748 341.70865 206.15498Q342.00552 206.09248 342.20865 206.01436Q342.4274 205.93623 342.56802 205.87373Q342.70865 205.81123 342.77115 205.81123Q342.81802 205.81123 342.84927 205.84248Q342.88052 205.85811 342.89615 205.90498Q342.91177 205.93623 342.91177 206.01436Q342.9274 206.09248 342.9274 206.18623Q342.9274 206.26436 342.91177 206.32686Q342.91177 206.37373 342.89615 206.42061Q342.89615 206.46748 342.88052 206.49873Q342.8649 206.52998 342.83365 206.57686Q342.8024 206.60811 342.63052 206.68623Q342.47427 206.74873 342.22427 206.82686Q341.97427 206.88936 341.64615 206.93623Q341.31802 206.99873 340.94302 206.99873Q340.28677 206.99873 339.78677 206.82686Q339.3024 206.63936 338.97427 206.27998Q338.64615 205.92061 338.47427 205.38936Q338.3024 204.84248 338.3024 204.12373Q338.3024 203.45186 338.47427 202.90498Q338.64615 202.35811 338.97427 201.98311Q339.31802 201.60811 339.78677 201.40498Q340.25552 201.20186 340.83365 201.20186Q341.45865 201.20186 341.89615 201.40498Q342.33365 201.60811 342.6149 201.95186Q342.89615 202.27998 343.02115 202.73311Q343.14615 203.18623 343.14615 203.70186L343.14615 203.87373ZM342.1774 203.59248Q342.19302 202.82686 341.83365 202.40498Q341.4899 201.96748 340.78677 201.96748Q340.4274 201.96748 340.16177 202.10811Q339.89615 202.23311 339.70865 202.45186Q339.53677 202.67061 339.4274 202.96748Q339.33365 203.26436 339.31802 203.59248L342.1774 203.59248ZM349.44302 205.93623Q349.44302 206.04561 349.4274 206.12373Q349.4274 206.18623 349.41177 206.23311Q349.39615 206.27998 349.38052 206.32686Q349.3649 206.35811 349.28677 206.43623Q349.20865 206.51436 349.03677 206.62373Q348.8649 206.71748 348.64615 206.81123Q348.4274 206.88936 348.16177 206.93623Q347.91177 206.99873 347.63052 206.99873Q347.06802 206.99873 346.63052 206.81123Q346.19302 206.62373 345.89615 206.26436Q345.59927 205.90498 345.44302 205.38936Q345.28677 204.85811 345.28677 204.17061Q345.28677 203.38936 345.47427 202.82686Q345.66177 202.26436 345.9899 201.92061Q346.33365 201.56123 346.77115 201.38936Q347.22427 201.21748 347.7399 201.21748Q347.9899 201.21748 348.22427 201.26436Q348.47427 201.31123 348.66177 201.38936Q348.8649 201.45186 349.02115 201.56123Q349.1774 201.65498 349.2399 201.73311Q349.31802 201.79561 349.34927 201.84248Q349.38052 201.87373 349.39615 201.93623Q349.41177 201.98311 349.41177 202.06123Q349.4274 202.12373 349.4274 202.23311Q349.4274 202.46748 349.3649 202.56123Q349.31802 202.63936 349.2399 202.63936Q349.14615 202.63936 349.03677 202.54561Q348.9274 202.45186 348.7399 202.34248Q348.56802 202.21748 348.31802 202.12373Q348.06802 202.02998 347.7399 202.02998Q347.03677 202.02998 346.66177 202.56123Q346.28677 203.09248 346.28677 204.12373Q346.28677 204.62373 346.38052 205.01436Q346.4899 205.38936 346.6774 205.65498Q346.8649 205.90498 347.13052 206.02998Q347.41177 206.15498 347.75552 206.15498Q348.08365 206.15498 348.33365 206.06123Q348.59927 205.95186 348.77115 205.82686Q348.95865 205.70186 349.08365 205.60811Q349.20865 205.49873 349.28677 205.49873Q349.33365 205.49873 349.34927 205.52998Q349.38052 205.54561 349.39615 205.60811Q349.4274 205.65498 349.4274 205.74873Q349.44302 205.82686 349.44302 205.93623ZM355.19302 206.74873Q355.19302 206.79561 355.16177 206.82686Q355.14615 206.85811 355.08365 206.88936Q355.03677 206.90498 354.94302 206.90498Q354.84927 206.92061 354.70865 206.92061Q354.56802 206.92061 354.47427 206.90498Q354.38052 206.90498 354.31802 206.88936Q354.27115 206.85811 354.2399 206.82686Q354.22427 206.79561 354.22427 206.74873L354.22427 203.65498Q354.22427 203.20186 354.14615 202.93623Q354.08365 202.65498 353.94302 202.45186Q353.81802 202.24873 353.59927 202.15498Q353.39615 202.04561 353.1149 202.04561Q352.7399 202.04561 352.38052 202.31123Q352.02115 202.56123 351.6149 203.06123L351.6149 206.74873Q351.6149 206.79561 351.58365 206.82686Q351.56802 206.85811 351.52115 206.88936Q351.47427 206.90498 351.38052 206.90498Q351.28677 206.92061 351.13052 206.92061Q350.9899 206.92061 350.89615 206.90498Q350.8024 206.90498 350.7399 206.88936Q350.69302 206.85811 350.66177 206.82686Q350.64615 206.79561 350.64615 206.74873L350.64615 198.92061Q350.64615 198.87373 350.66177 198.84248Q350.69302 198.79561 350.7399 198.77998Q350.8024 198.74873 350.89615 198.74873Q350.9899 198.73311 351.13052 198.73311Q351.28677 198.73311 351.38052 198.74873Q351.47427 198.74873 351.52115 198.77998Q351.56802 198.79561 351.58365 198.84248Q351.6149 198.87373 351.6149 198.92061L351.6149 202.07686Q352.03677 201.63936 352.45865 201.42061Q352.88052 201.20186 353.3024 201.20186Q353.83365 201.20186 354.19302 201.38936Q354.5524 201.56123 354.77115 201.85811Q355.00552 202.15498 355.09927 202.56123Q355.19302 202.96748 355.19302 203.52998L355.19302 206.74873Z" fill-rule="nonzero"/><path fill="#000000" d="M405.3075 206.46748Q405.3075 206.57686 405.29187 206.65498Q405.27625 206.73311 405.245 206.79561Q405.21375 206.84248 405.16687 206.87373Q405.13562 206.88936 405.08875 206.88936L401.46375 206.88936Q401.32312 206.88936 401.19812 206.79561Q401.08875 206.70186 401.08875 206.48311L401.08875 199.71748Q401.08875 199.48311 401.19812 199.40498Q401.32312 199.31123 401.46375 199.31123L405.0575 199.31123Q405.10437 199.31123 405.13562 199.34248Q405.1825 199.35811 405.19812 199.40498Q405.22937 199.45186 405.245 199.54561Q405.26062 199.62373 405.26062 199.73311Q405.26062 199.84248 405.245 199.92061Q405.22937 199.99873 405.19812 200.04561Q405.1825 200.09248 405.13562 200.12373Q405.10437 200.13936 405.0575 200.13936L402.08875 200.13936L402.08875 202.52998L404.63562 202.52998Q404.6825 202.52998 404.71375 202.56123Q404.76062 202.57686 404.77625 202.62373Q404.8075 202.67061 404.82312 202.74873Q404.83875 202.82686 404.83875 202.95186Q404.83875 203.04561 404.82312 203.12373Q404.8075 203.20186 404.77625 203.24873Q404.76062 203.29561 404.71375 203.32686Q404.6825 203.34248 404.63562 203.34248L402.08875 203.34248L402.08875 206.04561L405.08875 206.04561Q405.13562 206.04561 405.16687 206.07686Q405.21375 206.09248 405.245 206.15498Q405.27625 206.20186 405.29187 206.27998Q405.3075 206.35811 405.3075 206.46748ZM410.96375 206.62373Q411.01062 206.71748 411.01062 206.77998Q411.01062 206.82686 410.94812 206.85811Q410.90125 206.88936 410.77625 206.90498Q410.66687 206.92061 410.495 206.92061Q410.32312 206.92061 410.21375 206.90498Q410.10437 206.90498 410.04187 206.88936Q409.995 206.85811 409.94812 206.82686Q409.91687 206.79561 409.90125 206.76436L408.63562 204.67061L407.37 206.76436Q407.35437 206.79561 407.32312 206.82686Q407.29187 206.85811 407.22937 206.88936Q407.16687 206.90498 407.0575 206.90498Q406.96375 206.92061 406.8075 206.92061Q406.63562 206.92061 406.52625 206.90498Q406.41687 206.88936 406.35437 206.85811Q406.3075 206.82686 406.3075 206.77998Q406.32312 206.71748 406.37 206.62373L408.01062 204.06123L406.46375 201.57686Q406.41687 201.49873 406.40125 201.45186Q406.40125 201.38936 406.46375 201.35811Q406.52625 201.31123 406.63562 201.29561Q406.745 201.27998 406.9325 201.27998Q407.10437 201.27998 407.19812 201.29561Q407.3075 201.31123 407.37 201.32686Q407.4325 201.34248 407.44812 201.37373Q407.47937 201.40498 407.51062 201.43623L408.71375 203.40498L409.9325 201.43623Q409.94812 201.40498 409.97937 201.37373Q410.01062 201.34248 410.0575 201.32686Q410.10437 201.31123 410.19812 201.29561Q410.29187 201.27998 410.44812 201.27998Q410.62 201.27998 410.72937 201.29561Q410.83875 201.31123 410.88562 201.34248Q410.94812 201.37373 410.9325 201.43623Q410.9325 201.49873 410.88562 201.57686L409.33875 204.02998L410.96375 206.62373ZM415.76062 205.93623Q415.76062 206.04561 415.745 206.12373Q415.745 206.18623 415.72937 206.23311Q415.71375 206.27998 415.69812 206.32686Q415.6825 206.35811 415.60437 206.43623Q415.52625 206.51436 415.35437 206.62373Q415.1825 206.71748 414.96375 206.81123Q414.745 206.88936 414.47937 206.93623Q414.22937 206.99873 413.94812 206.99873Q413.38562 206.99873 412.94812 206.81123Q412.51062 206.62373 412.21375 206.26436Q411.91687 205.90498 411.76062 205.38936Q411.60437 204.85811 411.60437 204.17061Q411.60437 203.38936 411.79187 202.82686Q411.97937 202.26436 412.3075 201.92061Q412.65125 201.56123 413.08875 201.38936Q413.54187 201.21748 414.0575 201.21748Q414.3075 201.21748 414.54187 201.26436Q414.79187 201.31123 414.97937 201.38936Q415.1825 201.45186 415.33875 201.56123Q415.495 201.65498 415.5575 201.73311Q415.63562 201.79561 415.66687 201.84248Q415.69812 201.87373 415.71375 201.93623Q415.72937 201.98311 415.72937 202.06123Q415.745 202.12373 415.745 202.23311Q415.745 202.46748 415.6825 202.56123Q415.63562 202.63936 415.5575 202.63936Q415.46375 202.63936 415.35437 202.54561Q415.245 202.45186 415.0575 202.34248Q414.88562 202.21748 414.63562 202.12373Q414.38562 202.02998 414.0575 202.02998Q413.35437 202.02998 412.97937 202.56123Q412.60437 203.09248 412.60437 204.12373Q412.60437 204.62373 412.69812 205.01436Q412.8075 205.38936 412.995 205.65498Q413.1825 205.90498 413.44812 206.02998Q413.72937 206.15498 414.07312 206.15498Q414.40125 206.15498 414.65125 206.06123Q414.91687 205.95186 415.08875 205.82686Q415.27625 205.70186 415.40125 205.60811Q415.52625 205.49873 415.60437 205.49873Q415.65125 205.49873 415.66687 205.52998Q415.69812 205.54561 415.71375 205.60811Q415.745 205.65498 415.745 205.74873Q415.76062 205.82686 415.76062 205.93623ZM421.46375 203.87373Q421.46375 204.10811 421.35437 204.20186Q421.245 204.29561 421.08875 204.29561L417.63562 204.29561Q417.63562 204.73311 417.71375 205.09248Q417.8075 205.43623 418.01062 205.70186Q418.22937 205.95186 418.5575 206.09248Q418.88562 206.21748 419.35437 206.21748Q419.72937 206.21748 420.02625 206.15498Q420.32312 206.09248 420.52625 206.01436Q420.745 205.93623 420.88562 205.87373Q421.02625 205.81123 421.08875 205.81123Q421.13562 205.81123 421.16687 205.84248Q421.19812 205.85811 421.21375 205.90498Q421.22937 205.93623 421.22937 206.01436Q421.245 206.09248 421.245 206.18623Q421.245 206.26436 421.22937 206.32686Q421.22937 206.37373 421.21375 206.42061Q421.21375 206.46748 421.19812 206.49873Q421.1825 206.52998 421.15125 206.57686Q421.12 206.60811 420.94812 206.68623Q420.79187 206.74873 420.54187 206.82686Q420.29187 206.88936 419.96375 206.93623Q419.63562 206.99873 419.26062 206.99873Q418.60437 206.99873 418.10437 206.82686Q417.62 206.63936 417.29187 206.27998Q416.96375 205.92061 416.79187 205.38936Q416.62 204.84248 416.62 204.12373Q416.62 203.45186 416.79187 202.90498Q416.96375 202.35811 417.29187 201.98311Q417.63562 201.60811 418.10437 201.40498Q418.57312 201.20186 419.15125 201.20186Q419.77625 201.20186 420.21375 201.40498Q420.65125 201.60811 420.9325 201.95186Q421.21375 202.27998 421.33875 202.73311Q421.46375 203.18623 421.46375 203.70186L421.46375 203.87373ZM420.495 203.59248Q420.51062 202.82686 420.15125 202.40498Q419.8075 201.96748 419.10437 201.96748Q418.745 201.96748 418.47937 202.10811Q418.21375 202.23311 418.02625 202.45186Q417.85437 202.67061 417.745 202.96748Q417.65125 203.26436 417.63562 203.59248L420.495 203.59248ZM424.9325 206.74873Q424.9325 206.79561 424.90125 206.82686Q424.88562 206.85811 424.83875 206.88936Q424.79187 206.90498 424.69812 206.90498Q424.60437 206.92061 424.44812 206.92061Q424.3075 206.92061 424.21375 206.90498Q424.12 206.90498 424.0575 206.88936Q424.01062 206.85811 423.97937 206.82686Q423.96375 206.79561 423.96375 206.74873L423.96375 198.92061Q423.96375 198.87373 423.97937 198.84248Q424.01062 198.79561 424.0575 198.77998Q424.12 198.74873 424.21375 198.74873Q424.3075 198.73311 424.44812 198.73311Q424.60437 198.73311 424.69812 198.74873Q424.79187 198.74873 424.83875 198.77998Q424.88562 198.79561 424.90125 198.84248Q424.9325 198.87373 424.9325 198.92061L424.9325 206.74873ZM435.83875 199.73311Q435.83875 199.85811 435.82312 199.93623Q435.8075 200.01436 435.77625 200.06123Q435.76062 200.10811 435.71375 200.13936Q435.6825 200.15498 435.63562 200.15498L433.495 200.15498L433.495 206.73311Q433.495 206.77998 433.46375 206.82686Q433.44812 206.85811 433.38562 206.87373Q433.33875 206.88936 433.245 206.90498Q433.15125 206.92061 432.995 206.92061Q432.85437 206.92061 432.745 206.90498Q432.65125 206.88936 432.58875 206.87373Q432.54187 206.85811 432.51062 206.82686Q432.495 206.77998 432.495 206.73311L432.495 200.15498L430.35437 200.15498Q430.3075 200.15498 430.27625 200.13936Q430.245 200.10811 430.21375 200.06123Q430.19812 200.01436 430.1825 199.93623Q430.16687 199.85811 430.16687 199.73311Q430.16687 199.62373 430.1825 199.54561Q430.19812 199.45186 430.21375 199.40498Q430.245 199.35811 430.27625 199.34248Q430.3075 199.31123 430.35437 199.31123L435.63562 199.31123Q435.6825 199.31123 435.71375 199.34248Q435.76062 199.35811 435.77625 199.40498Q435.8075 199.45186 435.82312 199.54561Q435.83875 199.62373 435.83875 199.73311ZM441.46375 203.87373Q441.46375 204.10811 441.35437 204.20186Q441.245 204.29561 441.08875 204.29561L437.63562 204.29561Q437.63562 204.73311 437.71375 205.09248Q437.8075 205.43623 438.01062 205.70186Q438.22937 205.95186 438.5575 206.09248Q438.88562 206.21748 439.35437 206.21748Q439.72937 206.21748 440.02625 206.15498Q440.32312 206.09248 440.52625 206.01436Q440.745 205.93623 440.88562 205.87373Q441.02625 205.81123 441.08875 205.81123Q441.13562 205.81123 441.16687 205.84248Q441.19812 205.85811 441.21375 205.90498Q441.22937 205.93623 441.22937 206.01436Q441.245 206.09248 441.245 206.18623Q441.245 206.26436 441.22937 206.32686Q441.22937 206.37373 441.21375 206.42061Q441.21375 206.46748 441.19812 206.49873Q441.1825 206.52998 441.15125 206.57686Q441.12 206.60811 440.94812 206.68623Q440.79187 206.74873 440.54187 206.82686Q440.29187 206.88936 439.96375 206.93623Q439.63562 206.99873 439.26062 206.99873Q438.60437 206.99873 438.10437 206.82686Q437.62 206.63936 437.29187 206.27998Q436.96375 205.92061 436.79187 205.38936Q436.62 204.84248 436.62 204.12373Q436.62 203.45186 436.79187 202.90498Q436.96375 202.35811 437.29187 201.98311Q437.63562 201.60811 438.10437 201.40498Q438.57312 201.20186 439.15125 201.20186Q439.77625 201.20186 440.21375 201.40498Q440.65125 201.60811 440.9325 201.95186Q441.21375 202.27998 441.33875 202.73311Q441.46375 203.18623 441.46375 203.70186L441.46375 203.87373ZM440.495 203.59248Q440.51062 202.82686 440.15125 202.40498Q439.8075 201.96748 439.10437 201.96748Q438.745 201.96748 438.47937 202.10811Q438.21375 202.23311 438.02625 202.45186Q437.85437 202.67061 437.745 202.96748Q437.65125 203.26436 437.63562 203.59248L440.495 203.59248ZM447.76062 205.93623Q447.76062 206.04561 447.745 206.12373Q447.745 206.18623 447.72937 206.23311Q447.71375 206.27998 447.69812 206.32686Q447.6825 206.35811 447.60437 206.43623Q447.52625 206.51436 447.35437 206.62373Q447.1825 206.71748 446.96375 206.81123Q446.745 206.88936 446.47937 206.93623Q446.22937 206.99873 445.94812 206.99873Q445.38562 206.99873 444.94812 206.81123Q444.51062 206.62373 444.21375 206.26436Q443.91687 205.90498 443.76062 205.38936Q443.60437 204.85811 443.60437 204.17061Q443.60437 203.38936 443.79187 202.82686Q443.97937 202.26436 444.3075 201.92061Q444.65125 201.56123 445.08875 201.38936Q445.54187 201.21748 446.0575 201.21748Q446.3075 201.21748 446.54187 201.26436Q446.79187 201.31123 446.97937 201.38936Q447.1825 201.45186 447.33875 201.56123Q447.495 201.65498 447.5575 201.73311Q447.63562 201.79561 447.66687 201.84248Q447.69812 201.87373 447.71375 201.93623Q447.72937 201.98311 447.72937 202.06123Q447.745 202.12373 447.745 202.23311Q447.745 202.46748 447.6825 202.56123Q447.63562 202.63936 447.5575 202.63936Q447.46375 202.63936 447.35437 202.54561Q447.245 202.45186 447.0575 202.34248Q446.88562 202.21748 446.63562 202.12373Q446.38562 202.02998 446.0575 202.02998Q445.35437 202.02998 444.97937 202.56123Q444.60437 203.09248 444.60437 204.12373Q444.60437 204.62373 444.69812 205.01436Q444.8075 205.38936 444.995 205.65498Q445.1825 205.90498 445.44812 206.02998Q445.72937 206.15498 446.07312 206.15498Q446.40125 206.15498 446.65125 206.06123Q446.91687 205.95186 447.08875 205.82686Q447.27625 205.70186 447.40125 205.60811Q447.52625 205.49873 447.60437 205.49873Q447.65125 205.49873 447.66687 205.52998Q447.69812 205.54561 447.71375 205.60811Q447.745 205.65498 447.745 205.74873Q447.76062 205.82686 447.76062 205.93623ZM453.51062 206.74873Q453.51062 206.79561 453.47937 206.82686Q453.46375 206.85811 453.40125 206.88936Q453.35437 206.90498 453.26062 206.90498Q453.16687 206.92061 453.02625 206.92061Q452.88562 206.92061 452.79187 206.90498Q452.69812 206.90498 452.63562 206.88936Q452.58875 206.85811 452.5575 206.82686Q452.54187 206.79561 452.54187 206.74873L452.54187 203.65498Q452.54187 203.20186 452.46375 202.93623Q452.40125 202.65498 452.26062 202.45186Q452.13562 202.24873 451.91687 202.15498Q451.71375 202.04561 451.4325 202.04561Q451.0575 202.04561 450.69812 202.31123Q450.33875 202.56123 449.9325 203.06123L449.9325 206.74873Q449.9325 206.79561 449.90125 206.82686Q449.88562 206.85811 449.83875 206.88936Q449.79187 206.90498 449.69812 206.90498Q449.60437 206.92061 449.44812 206.92061Q449.3075 206.92061 449.21375 206.90498Q449.12 206.90498 449.0575 206.88936Q449.01062 206.85811 448.97937 206.82686Q448.96375 206.79561 448.96375 206.74873L448.96375 198.92061Q448.96375 198.87373 448.97937 198.84248Q449.01062 198.79561 449.0575 198.77998Q449.12 198.74873 449.21375 198.74873Q449.3075 198.73311 449.44812 198.73311Q449.60437 198.73311 449.69812 198.74873Q449.79187 198.74873 449.83875 198.77998Q449.88562 198.79561 449.90125 198.84248Q449.9325 198.87373 449.9325 198.92061L449.9325 202.07686Q450.35437 201.63936 450.77625 201.42061Q451.19812 201.20186 451.62 201.20186Q452.15125 201.20186 452.51062 201.38936Q452.87 201.56123 453.08875 201.85811Q453.32312 202.15498 453.41687 202.56123Q453.51062 202.96748 453.51062 203.52998L453.51062 206.74873Z" fill-rule="nonzero"/><path fill="#4f81bd" d="M184.225 224.046C184.225 223.49373 184.67271 223.046 185.225 223.046L195.225 223.046C195.77728 223.046 196.225 223.49373 196.225 224.046L196.225 234.046C196.225 234.5983 195.77728 235.046 195.225 235.046L185.225 235.046C184.67271 235.046 184.225 234.5983 184.225 234.046Z" fill-rule="nonzero"/><path fill="#1a1a1a" d="M210.95938 231.62413Q210.95938 231.74913 210.9125 231.82726Q210.88126 231.90538 210.81876 231.96788Q210.77188 232.01476 210.69376 232.046Q210.61563 232.06163 210.5375 232.06163L210.20938 232.06163Q210.06876 232.06163 209.94376 232.03038Q209.83438 231.99913 209.725 231.921Q209.63126 231.82726 209.52188 231.68663Q209.42813 231.53038 209.30313 231.31163L206.9125 226.99913Q206.725 226.65538 206.52188 226.296Q206.33438 225.921 206.17813 225.57726L206.1625 225.57726Q206.17813 225.99913 206.17813 226.45226Q206.19376 226.88976 206.19376 227.31163L206.19376 231.88976Q206.19376 231.93663 206.1625 231.9835Q206.14688 232.01476 206.08438 232.03038Q206.0375 232.046 205.94376 232.06163Q205.85 232.07726 205.70938 232.07726Q205.56876 232.07726 205.475 232.06163Q205.38126 232.046 205.33438 232.03038Q205.2875 232.01476 205.25626 231.9835Q205.24063 231.93663 205.24063 231.88976L205.24063 224.88976Q205.24063 224.65538 205.36563 224.56163Q205.49063 224.46788 205.64688 224.46788L206.13126 224.46788Q206.2875 224.46788 206.39688 224.49913Q206.52188 224.51476 206.61563 224.59288Q206.70938 224.65538 206.7875 224.78038Q206.88126 224.88976 206.975 225.07726L208.81876 228.40538Q208.99063 228.71788 209.14688 229.01476Q209.30313 229.296 209.44376 229.57726Q209.6 229.8585 209.74063 230.13976Q209.88126 230.40538 210.02188 230.671L210.02188 230.671Q210.02188 230.21788 210.00626 229.71788Q210.00626 229.20226 210.00626 228.74913L210.00626 224.63976Q210.00626 224.59288 210.02188 224.56163Q210.05313 224.51476 210.1 224.49913Q210.1625 224.46788 210.25626 224.46788Q210.35 224.45226 210.49063 224.45226Q210.63126 224.45226 210.725 224.46788Q210.81876 224.46788 210.86563 224.49913Q210.9125 224.51476 210.92813 224.56163Q210.95938 224.59288 210.95938 224.63976L210.95938 231.62413ZM218.02188 229.20226Q218.02188 229.84288 217.85 230.38976Q217.69376 230.93663 217.35 231.32726Q217.00626 231.71788 216.50626 231.93663Q216.00626 232.15538 215.33438 232.15538Q214.67813 232.15538 214.19376 231.96788Q213.70938 231.76476 213.38126 231.40538Q213.06876 231.03038 212.9125 230.51476Q212.75626 229.9835 212.75626 229.31163Q212.75626 228.671 212.9125 228.12413Q213.08438 227.57726 213.4125 227.18663Q213.75626 226.796 214.25626 226.57726Q214.77188 226.3585 215.44376 226.3585Q216.1 226.3585 216.56876 226.56163Q217.05313 226.74913 217.38126 227.12413Q217.70938 227.4835 217.86563 228.01476Q218.02188 228.546 218.02188 229.20226ZM217.00626 229.26476Q217.00626 228.84288 216.92813 228.46788Q216.85 228.07726 216.6625 227.796Q216.49063 227.49913 216.17813 227.34288Q215.86563 227.171 215.39688 227.171Q214.975 227.171 214.6625 227.32726Q214.36563 227.46788 214.1625 227.74913Q213.95938 228.03038 213.86563 228.421Q213.77188 228.796 213.77188 229.24913Q213.77188 229.671 213.85 230.06163Q213.92813 230.43663 214.1 230.7335Q214.2875 231.01476 214.6 231.18663Q214.9125 231.34288 215.38126 231.34288Q215.80313 231.34288 216.11563 231.18663Q216.42813 231.03038 216.61563 230.76476Q216.81876 230.4835 216.9125 230.1085Q217.00626 229.71788 217.00626 229.26476ZM228.02188 229.20226Q228.02188 229.84288 227.85 230.38976Q227.69376 230.93663 227.35 231.32726Q227.00626 231.71788 226.50626 231.93663Q226.00626 232.15538 225.33438 232.15538Q224.67813 232.15538 224.19376 231.96788Q223.70938 231.76476 223.38126 231.40538Q223.06876 231.03038 222.9125 230.51476Q222.75626 229.9835 222.75626 229.31163Q222.75626 228.671 222.9125 228.12413Q223.08438 227.57726 223.4125 227.18663Q223.75626 226.796 224.25626 226.57726Q224.77188 226.3585 225.44376 226.3585Q226.1 226.3585 226.56876 226.56163Q227.05313 226.74913 227.38126 227.12413Q227.70938 227.4835 227.86563 228.01476Q228.02188 228.546 228.02188 229.20226ZM227.00626 229.26476Q227.00626 228.84288 226.92813 228.46788Q226.85 228.07726 226.6625 227.796Q226.49063 227.49913 226.17813 227.34288Q225.86563 227.171 225.39688 227.171Q224.975 227.171 224.6625 227.32726Q224.36563 227.46788 224.1625 227.74913Q223.95938 228.03038 223.86563 228.421Q223.77188 228.796 223.77188 229.24913Q223.77188 229.671 223.85 230.06163Q223.92813 230.43663 224.1 230.7335Q224.2875 231.01476 224.6 231.18663Q224.9125 231.34288 225.38126 231.34288Q225.80313 231.34288 226.11563 231.18663Q226.42813 231.03038 226.61563 230.76476Q226.81876 230.4835 226.9125 230.1085Q227.00626 229.71788 227.00626 229.26476ZM233.00626 224.45226Q233.00626 224.56163 232.99063 224.63976Q232.99063 224.70226 232.975 224.74913Q232.95938 224.78038 232.92813 224.796Q232.9125 224.81163 232.88126 224.81163Q232.83438 224.81163 232.77188 224.796Q232.70938 224.76476 232.61563 224.7335Q232.5375 224.70226 232.4125 224.671Q232.30313 224.63976 232.13126 224.63976Q231.92813 224.63976 231.77188 224.71788Q231.61563 224.78038 231.52188 224.93663Q231.42813 225.07726 231.38126 225.32726Q231.35 225.56163 231.35 225.90538L231.35 226.46788L232.52188 226.46788Q232.56876 226.46788 232.6 226.49913Q232.63126 226.51476 232.6625 226.56163Q232.69376 226.6085 232.70938 226.68663Q232.725 226.76476 232.725 226.87413Q232.725 227.09288 232.6625 227.18663Q232.61563 227.28038 232.52188 227.28038L231.35 227.28038L231.35 231.90538Q231.35 231.95226 231.31876 231.9835Q231.30313 232.01476 231.24063 232.046Q231.19376 232.06163 231.1 232.06163Q231.00626 232.07726 230.86563 232.07726Q230.725 232.07726 230.63126 232.06163Q230.5375 232.06163 230.475 232.046Q230.42813 232.01476 230.39688 231.9835Q230.38126 231.95226 230.38126 231.90538L230.38126 227.28038L229.63126 227.28038Q229.5375 227.28038 229.49063 227.18663Q229.44376 227.09288 229.44376 226.87413Q229.44376 226.76476 229.44376 226.68663Q229.45938 226.6085 229.475 226.56163Q229.50626 226.51476 229.5375 226.49913Q229.58438 226.46788 229.63126 226.46788L230.38126 226.46788L230.38126 225.921Q230.38126 225.37413 230.475 224.9835Q230.58438 224.59288 230.7875 224.34288Q231.00626 224.07726 231.31876 223.96788Q231.64688 223.84288 232.06876 223.84288Q232.27188 223.84288 232.45938 223.88976Q232.6625 223.921 232.77188 223.96788Q232.88126 223.99913 232.9125 224.046Q232.94376 224.07726 232.95938 224.13976Q232.99063 224.18663 232.99063 224.26476Q233.00626 224.34288 233.00626 224.45226ZM241.30313 229.921Q241.30313 230.45226 241.1 230.87413Q240.9125 231.28038 240.55313 231.57726Q240.20938 231.8585 239.74063 232.01476Q239.27188 232.15538 238.725 232.15538Q238.35 232.15538 238.02188 232.09288Q237.69376 232.03038 237.44376 231.93663Q237.19376 231.84288 237.00626 231.74913Q236.83438 231.63976 236.77188 231.57726Q236.70938 231.49913 236.67813 231.38976Q236.64688 231.28038 236.64688 231.1085Q236.64688 230.96788 236.64688 230.88976Q236.6625 230.796 236.67813 230.74913Q236.70938 230.70226 236.74063 230.68663Q236.7875 230.65538 236.83438 230.65538Q236.9125 230.65538 237.05313 230.76476Q237.20938 230.8585 237.44376 230.9835Q237.67813 231.09288 238.00626 231.20226Q238.33438 231.296 238.77188 231.296Q239.1 231.296 239.36563 231.21788Q239.64688 231.12413 239.83438 230.96788Q240.0375 230.796 240.14688 230.56163Q240.25626 230.32726 240.25626 230.03038Q240.25626 229.70226 240.1 229.4835Q239.95938 229.24913 239.70938 229.07726Q239.475 228.90538 239.1625 228.76476Q238.86563 228.62413 238.5375 228.46788Q238.225 228.31163 237.9125 228.13976Q237.61563 227.95226 237.36563 227.71788Q237.13126 227.46788 236.975 227.13976Q236.83438 226.796 236.83438 226.34288Q236.83438 225.8585 237.00626 225.49913Q237.17813 225.12413 237.475 224.87413Q237.7875 224.6085 238.20938 224.4835Q238.64688 224.3585 239.13126 224.3585Q239.38126 224.3585 239.63126 224.40538Q239.89688 224.43663 240.11563 224.51476Q240.35 224.59288 240.52188 224.68663Q240.69376 224.76476 240.74063 224.82726Q240.80313 224.87413 240.81876 224.90538Q240.85 224.93663 240.85 224.99913Q240.86563 225.046 240.86563 225.12413Q240.88126 225.18663 240.88126 225.296Q240.88126 225.40538 240.86563 225.4835Q240.86563 225.56163 240.83438 225.62413Q240.81876 225.671 240.7875 225.70226Q240.75626 225.7335 240.725 225.7335Q240.6625 225.7335 240.52188 225.65538Q240.38126 225.56163 240.17813 225.46788Q239.975 225.3585 239.70938 225.28038Q239.44376 225.18663 239.1 225.18663Q238.7875 225.18663 238.55313 225.28038Q238.31876 225.3585 238.1625 225.49913Q238.00626 225.63976 237.92813 225.84288Q237.85 226.03038 237.85 226.24913Q237.85 226.56163 237.99063 226.796Q238.14688 227.01476 238.38126 227.20226Q238.63126 227.37413 238.94376 227.51476Q239.25626 227.65538 239.56876 227.81163Q239.89688 227.96788 240.20938 228.13976Q240.52188 228.31163 240.75626 228.56163Q241.00626 228.81163 241.14688 229.13976Q241.30313 229.46788 241.30313 229.921ZM247.6625 231.90538Q247.6625 231.95226 247.63126 231.9835Q247.61563 232.01476 247.55313 232.046Q247.50626 232.06163 247.4125 232.06163Q247.31876 232.07726 247.17813 232.07726Q247.0375 232.07726 246.94376 232.06163Q246.85 232.06163 246.7875 232.046Q246.74063 232.01476 246.70938 231.9835Q246.69376 231.95226 246.69376 231.90538L246.69376 228.81163Q246.69376 228.3585 246.61563 228.09288Q246.55313 227.81163 246.4125 227.6085Q246.2875 227.40538 246.06876 227.31163Q245.86563 227.20226 245.58438 227.20226Q245.20938 227.20226 244.85 227.46788Q244.49063 227.71788 244.08438 228.21788L244.08438 231.90538Q244.08438 231.95226 244.05313 231.9835Q244.0375 232.01476 243.99063 232.046Q243.94376 232.06163 243.85 232.06163Q243.75626 232.07726 243.6 232.07726Q243.45938 232.07726 243.36563 232.06163Q243.27188 232.06163 243.20938 232.046Q243.1625 232.01476 243.13126 231.9835Q243.11563 231.95226 243.11563 231.90538L243.11563 224.07726Q243.11563 224.03038 243.13126 223.99913Q243.1625 223.95226 243.20938 223.93663Q243.27188 223.90538 243.36563 223.90538Q243.45938 223.88976 243.6 223.88976Q243.75626 223.88976 243.85 223.90538Q243.94376 223.90538 243.99063 223.93663Q244.0375 223.95226 244.05313 223.99913Q244.08438 224.03038 244.08438 224.07726L244.08438 227.2335Q244.50626 226.796 244.92813 226.57726Q245.35 226.3585 245.77188 226.3585Q246.30313 226.3585 246.6625 226.546Q247.02188 226.71788 247.24063 227.01476Q247.475 227.31163 247.56876 227.71788Q247.6625 228.12413 247.6625 228.68663L247.6625 231.90538ZM251.08438 231.90538Q251.08438 231.95226 251.05313 231.9835Q251.0375 232.01476 250.99063 232.046Q250.94376 232.06163 250.85 232.06163Q250.75626 232.07726 250.6 232.07726Q250.45938 232.07726 250.36563 232.06163Q250.27188 232.06163 250.20938 232.046Q250.1625 232.01476 250.13126 231.9835Q250.11563 231.95226 250.11563 231.90538L250.11563 226.62413Q250.11563 226.57726 250.13126 226.546Q250.1625 226.51476 250.20938 226.49913Q250.27188 226.46788 250.36563 226.45226Q250.45938 226.43663 250.6 226.43663Q250.75626 226.43663 250.85 226.45226Q250.94376 226.46788 250.99063 226.49913Q251.0375 226.51476 251.05313 226.546Q251.08438 226.57726 251.08438 226.62413L251.08438 231.90538ZM251.19376 224.84288Q251.19376 225.18663 251.06876 225.31163Q250.94376 225.43663 250.6 225.43663Q250.25626 225.43663 250.13126 225.31163Q250.00626 225.18663 250.00626 224.8585Q250.00626 224.51476 250.13126 224.38976Q250.25626 224.26476 250.61563 224.26476Q250.94376 224.26476 251.06876 224.38976Q251.19376 224.51476 251.19376 224.84288ZM258.975 229.18663Q258.975 229.87413 258.81876 230.421Q258.67813 230.96788 258.38126 231.3585Q258.1 231.7335 257.6625 231.95226Q257.24063 232.15538 256.69376 232.15538Q256.45938 232.15538 256.25626 232.1085Q256.05313 232.06163 255.86563 231.96788Q255.67813 231.8585 255.49063 231.71788Q255.30313 231.56163 255.08438 231.3585L255.08438 233.99913Q255.08438 234.046 255.05313 234.07726Q255.0375 234.1085 254.99063 234.12413Q254.94376 234.15538 254.85 234.171Q254.75626 234.18663 254.6 234.18663Q254.45938 234.18663 254.36563 234.171Q254.27188 234.15538 254.20938 234.12413Q254.1625 234.1085 254.13126 234.07726Q254.11563 234.046 254.11563 233.99913L254.11563 226.62413Q254.11563 226.57726 254.13126 226.546Q254.1625 226.51476 254.20938 226.49913Q254.25626 226.46788 254.33438 226.45226Q254.42813 226.43663 254.5375 226.43663Q254.6625 226.43663 254.74063 226.45226Q254.81876 226.46788 254.86563 226.49913Q254.92813 226.51476 254.94376 226.546Q254.975 226.57726 254.975 226.62413L254.975 227.32726Q255.20938 227.09288 255.42813 226.90538Q255.6625 226.71788 255.88126 226.6085Q256.11563 226.4835 256.35 226.421Q256.58438 226.3585 256.85 226.3585Q257.42813 226.3585 257.81876 226.59288Q258.225 226.81163 258.475 227.20226Q258.74063 227.57726 258.85 228.09288Q258.975 228.6085 258.975 229.18663ZM257.95938 229.296Q257.95938 228.88976 257.89688 228.51476Q257.83438 228.12413 257.67813 227.84288Q257.5375 227.546 257.27188 227.37413Q257.02188 227.18663 256.64688 227.18663Q256.45938 227.18663 256.27188 227.24913Q256.1 227.31163 255.9125 227.43663Q255.725 227.546 255.52188 227.74913Q255.31876 227.93663 255.08438 228.21788L255.08438 230.32726Q255.49063 230.81163 255.85 231.07726Q256.20938 231.32726 256.6 231.32726Q256.95938 231.32726 257.20938 231.15538Q257.475 230.96788 257.63126 230.68663Q257.80313 230.38976 257.88126 230.03038Q257.95938 229.65538 257.95938 229.296ZM265.975 229.18663Q265.975 229.87413 265.81876 230.421Q265.67813 230.96788 265.38126 231.3585Q265.1 231.7335 264.6625 231.95226Q264.24063 232.15538 263.69376 232.15538Q263.45938 232.15538 263.25626 232.1085Q263.05313 232.06163 262.86563 231.96788Q262.67813 231.8585 262.49063 231.71788Q262.30313 231.56163 262.08438 231.3585L262.08438 233.99913Q262.08438 234.046 262.05313 234.07726Q262.0375 234.1085 261.99063 234.12413Q261.94376 234.15538 261.85 234.171Q261.75626 234.18663 261.6 234.18663Q261.45938 234.18663 261.36563 234.171Q261.27188 234.15538 261.20938 234.12413Q261.1625 234.1085 261.13126 234.07726Q261.11563 234.046 261.11563 233.99913L261.11563 226.62413Q261.11563 226.57726 261.13126 226.546Q261.1625 226.51476 261.20938 226.49913Q261.25626 226.46788 261.33438 226.45226Q261.42813 226.43663 261.5375 226.43663Q261.6625 226.43663 261.74063 226.45226Q261.81876 226.46788 261.86563 226.49913Q261.92813 226.51476 261.94376 226.546Q261.975 226.57726 261.975 226.62413L261.975 227.32726Q262.20938 227.09288 262.42813 226.90538Q262.6625 226.71788 262.88126 226.6085Q263.11563 226.4835 263.35 226.421Q263.58438 226.3585 263.85 226.3585Q264.42813 226.3585 264.81876 226.59288Q265.225 226.81163 265.475 227.20226Q265.74063 227.57726 265.85 228.09288Q265.975 228.6085 265.975 229.18663ZM264.95938 229.296Q264.95938 228.88976 264.89688 228.51476Q264.83438 228.12413 264.67813 227.84288Q264.5375 227.546 264.27188 227.37413Q264.02188 227.18663 263.64688 227.18663Q263.45938 227.18663 263.27188 227.24913Q263.1 227.31163 262.9125 227.43663Q262.725 227.546 262.52188 227.74913Q262.31876 227.93663 262.08438 228.21788L262.08438 230.32726Q262.49063 230.81163 262.85 231.07726Q263.20938 231.32726 263.6 231.32726Q263.95938 231.32726 264.20938 231.15538Q264.475 230.96788 264.63126 230.68663Q264.80313 230.38976 264.88126 230.03038Q264.95938 229.65538 264.95938 229.296ZM269.08438 231.90538Q269.08438 231.95226 269.05313 231.9835Q269.0375 232.01476 268.99063 232.046Q268.94376 232.06163 268.85 232.06163Q268.75626 232.07726 268.6 232.07726Q268.45938 232.07726 268.36563 232.06163Q268.27188 232.06163 268.20938 232.046Q268.1625 232.01476 268.13126 231.9835Q268.11563 231.95226 268.11563 231.90538L268.11563 226.62413Q268.11563 226.57726 268.13126 226.546Q268.1625 226.51476 268.20938 226.49913Q268.27188 226.46788 268.36563 226.45226Q268.45938 226.43663 268.6 226.43663Q268.75626 226.43663 268.85 226.45226Q268.94376 226.46788 268.99063 226.49913Q269.0375 226.51476 269.05313 226.546Q269.08438 226.57726 269.08438 226.62413L269.08438 231.90538ZM269.19376 224.84288Q269.19376 225.18663 269.06876 225.31163Q268.94376 225.43663 268.6 225.43663Q268.25626 225.43663 268.13126 225.31163Q268.00626 225.18663 268.00626 224.8585Q268.00626 224.51476 268.13126 224.38976Q268.25626 224.26476 268.61563 224.26476Q268.94376 224.26476 269.06876 224.38976Q269.19376 224.51476 269.19376 224.84288ZM276.6625 231.90538Q276.6625 231.95226 276.63126 231.9835Q276.61563 232.01476 276.55313 232.046Q276.50626 232.06163 276.4125 232.06163Q276.31876 232.07726 276.17813 232.07726Q276.0375 232.07726 275.94376 232.06163Q275.85 232.06163 275.7875 232.046Q275.74063 232.01476 275.70938 231.9835Q275.69376 231.95226 275.69376 231.90538L275.69376 228.81163Q275.69376 228.3585 275.61563 228.09288Q275.55313 227.81163 275.4125 227.6085Q275.2875 227.40538 275.06876 227.31163Q274.86563 227.20226 274.58438 227.20226Q274.20938 227.20226 273.85 227.46788Q273.49063 227.71788 273.08438 228.21788L273.08438 231.90538Q273.08438 231.95226 273.05313 231.9835Q273.0375 232.01476 272.99063 232.046Q272.94376 232.06163 272.85 232.06163Q272.75626 232.07726 272.6 232.07726Q272.45938 232.07726 272.36563 232.06163Q272.27188 232.06163 272.20938 232.046Q272.1625 232.01476 272.13126 231.9835Q272.11563 231.95226 272.11563 231.90538L272.11563 226.62413Q272.11563 226.57726 272.13126 226.546Q272.1625 226.51476 272.20938 226.49913Q272.25626 226.46788 272.33438 226.45226Q272.42813 226.43663 272.56876 226.43663Q272.69376 226.43663 272.77188 226.45226Q272.86563 226.46788 272.9125 226.49913Q272.95938 226.51476 272.975 226.546Q272.99063 226.57726 272.99063 226.62413L272.99063 227.32726Q273.44376 226.82726 273.88126 226.59288Q274.31876 226.3585 274.77188 226.3585Q275.30313 226.3585 275.6625 226.546Q276.02188 226.71788 276.24063 227.01476Q276.475 227.31163 276.56876 227.71788Q276.6625 228.12413 276.6625 228.68663L276.6625 231.90538ZM283.52188 226.8585Q283.52188 227.07726 283.45938 227.171Q283.4125 227.24913 283.33438 227.24913L282.56876 227.24913Q282.77188 227.46788 282.85 227.71788Q282.94376 227.96788 282.94376 228.24913Q282.94376 228.70226 282.7875 229.06163Q282.64688 229.40538 282.36563 229.65538Q282.1 229.88976 281.725 230.03038Q281.35 230.15538 280.89688 230.15538Q280.56876 230.15538 280.27188 230.07726Q279.99063 229.9835 279.83438 229.8585Q279.725 229.95226 279.6625 230.09288Q279.6 230.2335 279.6 230.40538Q279.6 230.6085 279.7875 230.74913Q279.975 230.87413 280.2875 230.88976L281.67813 230.95226Q282.06876 230.96788 282.39688 231.06163Q282.725 231.15538 282.95938 231.34288Q283.19376 231.51476 283.33438 231.78038Q283.475 232.03038 283.475 232.37413Q283.475 232.74913 283.31876 233.07726Q283.1625 233.40538 282.85 233.65538Q282.5375 233.90538 282.05313 234.046Q281.56876 234.18663 280.89688 234.18663Q280.27188 234.18663 279.81876 234.07726Q279.36563 233.96788 279.06876 233.78038Q278.7875 233.59288 278.6625 233.32726Q278.5375 233.07726 278.5375 232.76476Q278.5375 232.57726 278.58438 232.38976Q278.63126 232.21788 278.725 232.046Q278.81876 231.87413 278.95938 231.7335Q279.11563 231.57726 279.30313 231.43663Q279.00626 231.296 278.86563 231.07726Q278.74063 230.84288 278.74063 230.59288Q278.74063 230.2335 278.88126 229.95226Q279.02188 229.671 279.24063 229.43663Q279.06876 229.2335 278.95938 228.96788Q278.85 228.68663 278.85 228.296Q278.85 227.84288 279.00626 227.4835Q279.1625 227.12413 279.42813 226.88976Q279.69376 226.63976 280.06876 226.51476Q280.45938 226.37413 280.89688 226.37413Q281.13126 226.37413 281.33438 226.40538Q281.55313 226.421 281.74063 226.46788L283.33438 226.46788Q283.42813 226.46788 283.475 226.57726Q283.52188 226.671 283.52188 226.8585ZM282.02188 228.24913Q282.02188 227.71788 281.725 227.421Q281.42813 227.1085 280.88126 227.1085Q280.6 227.1085 280.38126 227.20226Q280.17813 227.296 280.0375 227.46788Q279.9125 227.62413 279.83438 227.84288Q279.77188 228.06163 279.77188 228.296Q279.77188 228.81163 280.06876 229.1085Q280.36563 229.40538 280.89688 229.40538Q281.17813 229.40538 281.38126 229.32726Q281.6 229.2335 281.74063 229.07726Q281.88126 228.90538 281.94376 228.70226Q282.02188 228.4835 282.02188 228.24913ZM282.50626 232.43663Q282.50626 232.09288 282.225 231.90538Q281.94376 231.71788 281.475 231.71788L280.1 231.671Q279.9125 231.81163 279.7875 231.95226Q279.67813 232.07726 279.6 232.18663Q279.5375 232.31163 279.50626 232.421Q279.49063 232.546 279.49063 232.671Q279.49063 233.06163 279.86563 233.24913Q280.25626 233.45226 280.94376 233.45226Q281.39688 233.45226 281.67813 233.3585Q281.975 233.28038 282.1625 233.13976Q282.35 232.99913 282.42813 232.81163Q282.50626 232.63976 282.50626 232.43663ZM292.975 229.18663Q292.975 229.87413 292.81876 230.421Q292.67813 230.96788 292.38126 231.3585Q292.1 231.74913 291.67813 231.95226Q291.25626 232.15538 290.70938 232.15538Q290.45938 232.15538 290.24063 232.1085Q290.02188 232.06163 289.81876 231.95226Q289.61563 231.82726 289.4125 231.671Q289.20938 231.49913 288.975 231.24913L288.975 231.90538Q288.975 231.95226 288.94376 231.9835Q288.92813 232.01476 288.86563 232.046Q288.81876 232.06163 288.74063 232.06163Q288.6625 232.07726 288.5375 232.07726Q288.42813 232.07726 288.33438 232.06163Q288.25626 232.06163 288.20938 232.046Q288.1625 232.01476 288.13126 231.9835Q288.11563 231.95226 288.11563 231.90538L288.11563 224.07726Q288.11563 224.03038 288.13126 223.99913Q288.1625 223.95226 288.20938 223.93663Q288.27188 223.90538 288.36563 223.90538Q288.45938 223.88976 288.6 223.88976Q288.75626 223.88976 288.85 223.90538Q288.94376 223.90538 288.99063 223.93663Q289.0375 223.95226 289.05313 223.99913Q289.08438 224.03038 289.08438 224.07726L289.08438 227.2335Q289.31876 226.9835 289.5375 226.82726Q289.75626 226.65538 289.95938 226.56163Q290.17813 226.45226 290.38126 226.40538Q290.6 226.3585 290.83438 226.3585Q291.4125 226.3585 291.81876 226.59288Q292.225 226.81163 292.475 227.20226Q292.74063 227.59288 292.85 228.1085Q292.975 228.62413 292.975 229.18663ZM291.95938 229.296Q291.95938 228.90538 291.89688 228.53038Q291.83438 228.13976 291.67813 227.84288Q291.52188 227.546 291.27188 227.37413Q291.02188 227.18663 290.64688 227.18663Q290.45938 227.18663 290.27188 227.24913Q290.1 227.296 289.9125 227.421Q289.725 227.546 289.52188 227.74913Q289.31876 227.93663 289.08438 228.21788L289.08438 230.32726Q289.49063 230.81163 289.85 231.07726Q290.20938 231.32726 290.6 231.32726Q290.975 231.32726 291.225 231.15538Q291.49063 230.96788 291.64688 230.68663Q291.80313 230.38976 291.88126 230.03038Q291.95938 229.671 291.95938 229.296ZM296.08438 231.90538Q296.08438 231.95226 296.05313 231.9835Q296.0375 232.01476 295.99063 232.046Q295.94376 232.06163 295.85 232.06163Q295.75626 232.07726 295.6 232.07726Q295.45938 232.07726 295.36563 232.06163Q295.27188 232.06163 295.20938 232.046Q295.1625 232.01476 295.13126 231.9835Q295.11563 231.95226 295.11563 231.90538L295.11563 226.62413Q295.11563 226.57726 295.13126 226.546Q295.1625 226.51476 295.20938 226.49913Q295.27188 226.46788 295.36563 226.45226Q295.45938 226.43663 295.6 226.43663Q295.75626 226.43663 295.85 226.45226Q295.94376 226.46788 295.99063 226.49913Q296.0375 226.51476 296.05313 226.546Q296.08438 226.57726 296.08438 226.62413L296.08438 231.90538ZM296.19376 224.84288Q296.19376 225.18663 296.06876 225.31163Q295.94376 225.43663 295.6 225.43663Q295.25626 225.43663 295.13126 225.31163Q295.00626 225.18663 295.00626 224.8585Q295.00626 224.51476 295.13126 224.38976Q295.25626 224.26476 295.61563 224.26476Q295.94376 224.26476 296.06876 224.38976Q296.19376 224.51476 296.19376 224.84288ZM300.08438 231.90538Q300.08438 231.95226 300.05313 231.9835Q300.0375 232.01476 299.99063 232.046Q299.94376 232.06163 299.85 232.06163Q299.75626 232.07726 299.6 232.07726Q299.45938 232.07726 299.36563 232.06163Q299.27188 232.06163 299.20938 232.046Q299.1625 232.01476 299.13126 231.9835Q299.11563 231.95226 299.11563 231.90538L299.11563 224.07726Q299.11563 224.03038 299.13126 223.99913Q299.1625 223.95226 299.20938 223.93663Q299.27188 223.90538 299.36563 223.90538Q299.45938 223.88976 299.6 223.88976Q299.75626 223.88976 299.85 223.90538Q299.94376 223.90538 299.99063 223.93663Q300.0375 223.95226 300.05313 223.99913Q300.08438 224.03038 300.08438 224.07726L300.08438 231.90538ZM304.08438 231.90538Q304.08438 231.95226 304.05313 231.9835Q304.0375 232.01476 303.99063 232.046Q303.94376 232.06163 303.85 232.06163Q303.75626 232.07726 303.6 232.07726Q303.45938 232.07726 303.36563 232.06163Q303.27188 232.06163 303.20938 232.046Q303.1625 232.01476 303.13126 231.9835Q303.11563 231.95226 303.11563 231.90538L303.11563 224.07726Q303.11563 224.03038 303.13126 223.99913Q303.1625 223.95226 303.20938 223.93663Q303.27188 223.90538 303.36563 223.90538Q303.45938 223.88976 303.6 223.88976Q303.75626 223.88976 303.85 223.90538Q303.94376 223.90538 303.99063 223.93663Q304.0375 223.95226 304.05313 223.99913Q304.08438 224.03038 304.08438 224.07726L304.08438 231.90538ZM315.02188 229.20226Q315.02188 229.84288 314.85 230.38976Q314.69376 230.93663 314.35 231.32726Q314.00626 231.71788 313.50626 231.93663Q313.00626 232.15538 312.33438 232.15538Q311.67813 232.15538 311.19376 231.96788Q310.70938 231.76476 310.38126 231.40538Q310.06876 231.03038 309.9125 230.51476Q309.75626 229.9835 309.75626 229.31163Q309.75626 228.671 309.9125 228.12413Q310.08438 227.57726 310.4125 227.18663Q310.75626 226.796 311.25626 226.57726Q311.77188 226.3585 312.44376 226.3585Q313.1 226.3585 313.56876 226.56163Q314.05313 226.74913 314.38126 227.12413Q314.70938 227.4835 314.86563 228.01476Q315.02188 228.546 315.02188 229.20226ZM314.00626 229.26476Q314.00626 228.84288 313.92813 228.46788Q313.85 228.07726 313.6625 227.796Q313.49063 227.49913 313.17813 227.34288Q312.86563 227.171 312.39688 227.171Q311.975 227.171 311.6625 227.32726Q311.36563 227.46788 311.1625 227.74913Q310.95938 228.03038 310.86563 228.421Q310.77188 228.796 310.77188 229.24913Q310.77188 229.671 310.85 230.06163Q310.92813 230.43663 311.1 230.7335Q311.2875 231.01476 311.6 231.18663Q311.9125 231.34288 312.38126 231.34288Q312.80313 231.34288 313.11563 231.18663Q313.42813 231.03038 313.61563 230.76476Q313.81876 230.4835 313.9125 230.1085Q314.00626 229.71788 314.00626 229.26476ZM317.20938 233.45226Q317.19376 233.53038 317.14688 233.57726Q317.11563 233.62413 317.05313 233.63976Q316.99063 233.671 316.89688 233.671Q316.81876 233.68663 316.69376 233.68663Q316.55313 233.68663 316.45938 233.671Q316.36563 233.65538 316.30313 233.6085Q316.25626 233.57726 316.24063 233.51476Q316.225 233.46788 316.27188 233.38976L319.81876 223.671Q319.83438 223.59288 319.86563 223.546Q319.9125 223.49913 319.95938 223.4835Q320.02188 223.45226 320.1 223.45226Q320.19376 223.43663 320.31876 223.43663Q320.475 223.43663 320.56876 223.45226Q320.6625 223.46788 320.70938 223.51476Q320.75626 223.546 320.77188 223.6085Q320.7875 223.65538 320.75626 223.7335L317.20938 233.45226ZM325.42813 230.46788Q325.42813 230.87413 325.27188 231.18663Q325.13126 231.49913 324.85 231.71788Q324.58438 231.93663 324.19376 232.046Q323.81876 232.15538 323.36563 232.15538Q323.08438 232.15538 322.81876 232.1085Q322.56876 232.07726 322.36563 232.01476Q322.1625 231.93663 322.02188 231.8585Q321.88126 231.78038 321.81876 231.7335Q321.75626 231.671 321.725 231.56163Q321.69376 231.45226 321.69376 231.28038Q321.69376 231.171 321.70938 231.09288Q321.725 231.01476 321.74063 230.96788Q321.75626 230.921 321.7875 230.90538Q321.81876 230.87413 321.86563 230.87413Q321.92813 230.87413 322.05313 230.95226Q322.17813 231.03038 322.36563 231.12413Q322.55313 231.21788 322.80313 231.31163Q323.05313 231.38976 323.38126 231.38976Q323.63126 231.38976 323.81876 231.34288Q324.02188 231.28038 324.1625 231.18663Q324.31876 231.07726 324.39688 230.921Q324.475 230.74913 324.475 230.546Q324.475 230.31163 324.36563 230.171Q324.25626 230.01476 324.06876 229.90538Q323.88126 229.78038 323.64688 229.68663Q323.4125 229.59288 323.1625 229.49913Q322.9125 229.38976 322.6625 229.26476Q322.42813 229.13976 322.24063 228.96788Q322.05313 228.78038 321.94376 228.53038Q321.83438 228.28038 321.83438 227.921Q321.83438 227.6085 321.94376 227.32726Q322.06876 227.046 322.30313 226.84288Q322.55313 226.62413 322.9125 226.49913Q323.27188 226.3585 323.75626 226.3585Q323.95938 226.3585 324.1625 226.40538Q324.38126 226.43663 324.55313 226.4835Q324.725 226.53038 324.83438 226.59288Q324.95938 226.65538 325.02188 226.70226Q325.08438 226.74913 325.1 226.796Q325.13126 226.82726 325.13126 226.87413Q325.14688 226.90538 325.14688 226.9835Q325.1625 227.046 325.1625 227.13976Q325.1625 227.2335 325.14688 227.31163Q325.14688 227.37413 325.11563 227.421Q325.1 227.46788 325.06876 227.49913Q325.05313 227.51476 325.00626 227.51476Q324.95938 227.51476 324.85 227.45226Q324.75626 227.38976 324.6 227.31163Q324.44376 227.2335 324.225 227.171Q324.02188 227.1085 323.74063 227.1085Q323.49063 227.1085 323.30313 227.171Q323.11563 227.21788 322.99063 227.32726Q322.88126 227.421 322.81876 227.56163Q322.75626 227.70226 322.75626 227.87413Q322.75626 228.1085 322.86563 228.26476Q322.99063 228.40538 323.17813 228.53038Q323.36563 228.63976 323.6 228.7335Q323.85 228.82726 324.1 228.93663Q324.35 229.03038 324.58438 229.15538Q324.83438 229.28038 325.02188 229.45226Q325.20938 229.62413 325.31876 229.87413Q325.42813 230.12413 325.42813 230.46788Z" fill-rule="nonzero"/></svg>