<svg xmlns="http://www.w3.org/2000/svg" width="21.628" height="21.666" viewBox="0 0 21.628 21.666">
  <g id="Icon_feather-phone-outgoing" data-name="Icon feather-phone-outgoing" transform="translate(-2.167 -0.086)">
    <path id="Path_1436" data-name="Path 1436" d="M31.019,7.019V1.5H25.5" transform="translate(-8.638)" fill="none" stroke="#0a3049" stroke-linecap="round" stroke-linejoin="round" stroke-width="2"/>
    <path id="Path_1437" data-name="Path 1437" d="M24,7.939,30.439,1.5" transform="translate(-8.058)" fill="none" stroke="#0a3049" stroke-linecap="round" stroke-linejoin="round" stroke-width="2"/>
    <path id="Path_1438" data-name="Path 1438" d="M21.461,16.724v2.759a1.84,1.84,0,0,1-2.005,1.84A18.2,18.2,0,0,1,11.518,18.5,17.936,17.936,0,0,1,6,12.98,18.2,18.2,0,0,1,3.175,5.005,1.84,1.84,0,0,1,5.006,3H7.765A1.84,1.84,0,0,1,9.6,4.582a11.81,11.81,0,0,0,.644,2.585,1.84,1.84,0,0,1-.414,1.941L8.667,10.276a14.717,14.717,0,0,0,5.519,5.519l1.168-1.168a1.84,1.84,0,0,1,1.941-.414,11.81,11.81,0,0,0,2.585.644,1.84,1.84,0,0,1,1.582,1.867Z" transform="translate(0 -0.58)" fill="none" stroke="#0a3049" stroke-linecap="round" stroke-linejoin="round" stroke-width="2"/>
  </g>
</svg>
