<svg xmlns="http://www.w3.org/2000/svg" width="19.25" height="19.25" viewBox="0 0 19.25 19.25">
  <g id="Group_1324" data-name="Group 1324" transform="translate(0.001 0)">
    <path id="Path_231" data-name="Path 231" d="M70.615,8.612H78A.615.615,0,0,0,78.612,8V.615A.615.615,0,0,0,78,0H70.615A.615.615,0,0,0,70,.615V8A.615.615,0,0,0,70.615,8.612ZM71.23,1.23h6.152V7.382H71.23Z" transform="translate(-70.001 0)" fill="#51aee5"/>
    <path id="Path_232" data-name="Path 232" d="M393.612.615A.615.615,0,0,0,393,0h-7.382A.615.615,0,0,0,385,.615V8a.615.615,0,0,0,.615.615H393A.615.615,0,0,0,393.612,8Zm-1.23,6.767H386.23V1.23h6.152Z" transform="translate(-374.363 0)" fill="#51aee5"/>
    <path id="Path_233" data-name="Path 233" d="M70.615,315.17H78.3a.615.615,0,0,0,.615-.615v-7.69a.615.615,0,0,0-.615-.615h-7.69a.615.615,0,0,0-.615.615v7.69A.615.615,0,0,0,70.615,315.17Zm.615-7.69H77.69v6.459H71.23Z" transform="translate(-70.001 -295.92)" fill="#51aee5"/>
    <path id="Path_234" data-name="Path 234" d="M393,315h-7.382a.615.615,0,0,0-.615.615V323a.615.615,0,0,0,.615.615H393a.615.615,0,0,0,.615-.615v-7.382A.615.615,0,0,0,393,315Zm-.615,7.382h0Z" transform="translate(-374.363 -304.362)" fill="#51aee5"/>
  </g>
</svg>
