<svg xmlns="http://www.w3.org/2000/svg" width="19.984" height="19.25" viewBox="0 0 19.984 19.25">
  <g id="Group_2931" data-name="Group 2931" transform="translate(39.684 -144.5)">
    <g id="Icon_feather-arrow-down" data-name="Icon feather-arrow-down" transform="translate(-20.45 156.593) rotate(90)">
      <path id="Path_1419" data-name="Path 1419" d="M0,6.317V0" transform="translate(2.503 0)" fill="none" stroke="#0a3049" stroke-linecap="round" stroke-linejoin="round" stroke-width="1.5"/>
      <path id="Path_1420" data-name="Path 1420" d="M5.006,2.338,2.5,0,0,2.338" fill="none" stroke="#0a3049" stroke-linecap="round" stroke-linejoin="round" stroke-width="1.5"/>
    </g>
    <path id="Subtraction_1" data-name="Subtraction 1" d="M9.626,19.25A9.627,9.627,0,0,1,5.879.757a9.625,9.625,0,0,1,13.3,7.654,6.66,6.66,0,0,0-1.936-.8A7.892,7.892,0,0,0,11.615,2a14.147,14.147,0,0,1,2.214,5.677,6.672,6.672,0,0,0-1.665.733A12.509,12.509,0,0,0,9.626,2.232,12.481,12.481,0,0,0,7.051,8.75h4.618a6.719,6.719,0,0,0-1.637,1.75H7.051a12.486,12.486,0,0,0,2.544,6.478,6.693,6.693,0,0,0,1.595,2.146A9.734,9.734,0,0,1,9.626,19.25ZM1.8,10.5a7.92,7.92,0,0,0,5.837,6.746A14.3,14.3,0,0,1,5.294,10.5H1.8ZM7.635,2A7.92,7.92,0,0,0,1.8,8.75h3.5A14.3,14.3,0,0,1,7.635,2Z" transform="translate(-39.684 144.5)" fill="#0a3049"/>
  </g>
</svg>
