<svg xmlns="http://www.w3.org/2000/svg" width="25.528" height="21.328" viewBox="0 0 25.528 21.328">
  <g id="Icon_feather-users" data-name="Icon feather-users" transform="translate(-0.5 -3.422)">
    <path id="Path_1424" data-name="Path 1424" d="M18.611,28.917V26.778A4.278,4.278,0,0,0,14.333,22.5H5.778A4.278,4.278,0,0,0,1.5,26.778v2.139" transform="translate(0 -5.167)" fill="none" stroke="#0a3049" stroke-linecap="round" stroke-linejoin="round" stroke-width="2"/>
    <path id="Path_1425" data-name="Path 1425" d="M16.056,8.778A4.278,4.278,0,1,1,11.778,4.5,4.278,4.278,0,0,1,16.056,8.778Z" transform="translate(-1.722)" fill="none" stroke="#0a3049" stroke-linecap="round" stroke-linejoin="round" stroke-width="2"/>
    <path id="Path_1426" data-name="Path 1426" d="M33.208,28.973V26.834A4.278,4.278,0,0,0,30,22.7" transform="translate(-8.181 -5.223)" fill="none" stroke="#0a3049" stroke-linecap="round" stroke-linejoin="round" stroke-width="2"/>
    <path id="Path_1427" data-name="Path 1427" d="M24,4.7a4.278,4.278,0,0,1,0,8.288" transform="translate(-6.458 -0.056)" fill="none" stroke="#0a3049" stroke-linecap="round" stroke-linejoin="round" stroke-width="2"/>
  </g>
</svg>
