<svg id="export" xmlns="http://www.w3.org/2000/svg" width="16" height="16" viewBox="0 0 16 16">
  <path id="Path_1471" data-name="Path 1471" d="M15.01,10h-.02a.99.99,0,0,0-.99.99V13.5a.5.5,0,0,1-.5.5H2.5a.5.5,0,0,1-.5-.5V2.5A.5.5,0,0,1,2.5,2H7.01A.99.99,0,0,0,8,1.01V.99A.99.99,0,0,0,7.01,0H.99A.99.99,0,0,0,0,.99V15.01A.99.99,0,0,0,.99,16H15.01a.99.99,0,0,0,.99-.99L15.99,15H16V10.99a.99.99,0,0,0-.99-.99Z" fill="#999"/>
  <path id="Path_1472" data-name="Path 1472" d="M16.286,2.785A9.041,9.041,0,0,0,9.942,5.5a7.52,7.52,0,0,0-1.886,4.559,1.036,1.036,0,0,0,1.029,1.151l.049,0a.95.95,0,0,0,.844-.881,5.939,5.939,0,0,1,1.428-3.535,7.143,7.143,0,0,1,4.907-2.043v.134h-.027l-.021.131L15.141,6.14a.983.983,0,0,0,0,1.381.96.96,0,0,0,1.368,0L19.442,4.56a.983.983,0,0,0,0-1.382L16.517.286a.96.96,0,0,0-1.367,0,.983.983,0,0,0,0,1.382l1.136,1.116Z" transform="translate(-3.726 0)" fill="#999"/>
</svg>
