<svg xmlns="http://www.w3.org/2000/svg" width="30.5" height="38" viewBox="0 0 30.5 38">
  <g id="Group_2958" data-name="Group 2958" transform="translate(-1779.5 -17)">
    <g id="Icon_feather-bell" data-name="Icon feather-bell" transform="translate(1776 24)">
      <path id="Path_1372" data-name="Path 1372" d="M24.5,10.8a7.9,7.9,0,0,0-8-7.8,7.9,7.9,0,0,0-8,7.8c0,9.1-4,11.7-4,11.7h24s-4-2.6-4-11.7" transform="translate(0)" fill="none" stroke="#114b72" stroke-linecap="round" stroke-linejoin="round" stroke-width="2"/>
      <path id="Path_1373" data-name="Path 1373" d="M20.595,31.5a3,3,0,0,1-5.19,0" transform="translate(-1.5 -2.995)" fill="none" stroke="#114b72" stroke-linecap="round" stroke-linejoin="round" stroke-width="2"/>
    </g>
    <path id="Path_1499" data-name="Path 1499" d="M11,0A11,11,0,1,1,0,11,11,11,0,0,1,11,0Z" transform="translate(1788 17)" fill="#51aee5"/>
    <text id="_4" data-name="4" transform="translate(1794 33)" fill="#fff" font-size="14" font-family="Poppins-Medium, Poppins" font-weight="500"><tspan x="0" y="0">4</tspan></text>
  </g>
</svg>
